<svg width="31" height="30" viewBox="0 0 31 30" fill="none" xmlns="http://www.w3.org/2000/svg">
<g clip-path="url(#clip0_276_198146)">
<path d="M30.1197 18.6274C28.1155 26.6675 19.9697 31.5548 11.9412 29.5506C3.90097 27.5465 -0.986467 19.4009 1.01773 11.3726C3.02194 3.33254 11.1559 -1.55479 19.1962 0.449365C27.2247 2.4418 32.1239 10.5873 30.1197 18.6274Z" fill="url(#paint0_linear_276_198146)"/>
<path d="M22.7109 13.1309C23.0039 11.1387 21.4922 10.0605 19.4062 9.3457L20.0859 6.63867L18.4453 6.22852L17.7891 8.86523C17.3555 8.75977 16.9102 8.6543 16.4648 8.56055L17.1211 5.91211L15.4805 5.50195L14.8125 8.19727C14.4492 8.11523 14.0977 8.0332 13.7578 7.95117V7.93945L11.4844 7.37695L11.0508 9.13477C11.0508 9.13477 12.2695 9.41602 12.2461 9.42773C12.9141 9.5918 13.0312 10.0371 13.0078 10.3887L12.2344 13.4707C12.2812 13.4824 12.3398 13.4941 12.4102 13.5293C12.3516 13.5176 12.293 13.5059 12.2344 13.4824L11.1562 17.7949C11.0742 17.9941 10.8633 18.2988 10.4062 18.1816C10.418 18.2051 9.21094 17.8887 9.21094 17.8887L8.39062 19.7754L10.5352 20.3145C10.9336 20.4199 11.3203 20.5137 11.707 20.6191L11.0273 23.3496L12.668 23.7598L13.3477 21.0527C13.793 21.1699 14.2383 21.2871 14.6602 21.3926L13.9922 24.0879L15.6328 24.498L16.3125 21.7676C19.125 22.2949 21.2344 22.084 22.1133 19.541C22.8281 17.502 22.0781 16.3184 20.6016 15.5449C21.6914 15.2988 22.5 14.584 22.7109 13.1309ZM18.9492 18.4043C18.4453 20.4434 15 19.3418 13.8867 19.0605L14.7891 15.4395C15.9023 15.7207 19.4883 16.2715 18.9492 18.4043ZM19.4648 13.0957C18.9961 14.959 16.1367 14.0098 15.2109 13.7754L16.0312 10.4941C16.957 10.7285 19.9453 11.1621 19.4648 13.0957Z" fill="white"/>
</g>
<defs>
<linearGradient id="paint0_linear_276_198146" x1="15.5604" y1="-0.00706574" x2="15.5604" y2="29.997" gradientUnits="userSpaceOnUse"><stop offset="1" stop-color="#F7931A"/>
</linearGradient>
<clipPath id="clip0_276_198146">
<rect width="30" height="30" fill="white" transform="translate(0.568359)"/>
</clipPath>
</defs>
</svg>
