<svg width="68" height="120" viewBox="0 0 68 120" fill="none" xmlns="http://www.w3.org/2000/svg">
<path d="M4.30435 109.189C4.88249 108.469 5.63456 108.108 6.56055 108.108C8.17273 108.108 8.98594 109.032 9 110.88V116H7.69565V110.873C7.69094 110.314 7.56404 109.901 7.31496 109.633C7.07052 109.366 6.68745 109.232 6.16568 109.232C5.74266 109.232 5.37133 109.347 5.05171 109.576C4.73208 109.805 4.48297 110.106 4.30435 110.479V116H3V105H4.30435V109.189Z" fill="currentColor"/>
<path fill-rule="evenodd" clip-rule="evenodd" d="M11.4406 111.126C11.1469 111.805 11 112.569 11 113.42V113.524C11 114.871 11.3222 115.955 11.9665 116.772C12.6156 117.591 13.4612 118 14.5036 118C15.1953 118 15.8064 117.813 16.3371 117.438C16.8724 117.064 17.2822 116.543 17.5665 115.874C17.8555 115.2 18 114.441 18 113.596V113.492C18 112.133 17.6754 111.045 17.0264 110.227C16.382 109.409 15.5364 109 14.4893 109C13.8119 109 13.2078 109.185 12.6772 109.554C12.1513 109.922 11.7391 110.447 11.4406 111.126ZM13.5407 115.201C13.1803 114.669 13 113.963 13 113.084C13 112.093 13.1824 111.331 13.5473 110.799C13.9121 110.266 14.392 110 14.987 110C15.595 110 16.0814 110.271 16.4462 110.813C16.8154 111.351 17 112.054 17 112.923C17 113.895 16.8198 114.652 16.4593 115.194C16.0988 115.731 15.6124 116 15 116C14.392 116 13.9056 115.734 13.5407 115.201Z" fill="currentColor"/>
<path d="M22 116H20V105H22V116Z" fill="currentColor"/>
<path d="M25.5836 114.873L27.4968 109H29L25.6974 118.045C25.1862 119.348 24.3738 120 23.2603 120L22.9946 119.979L22.4708 119.884V118.798L22.8503 118.827C23.3262 118.827 23.6956 118.735 23.9588 118.552C24.2271 118.368 24.4472 118.032 24.6193 117.545L24.9306 116.748L22 109H23.5336L25.5836 114.873Z" fill="currentColor"/>
<path d="M35.3043 109.189C35.8825 108.469 36.6345 108.108 37.5605 108.108C39.1727 108.108 39.9859 109.032 40 110.88V116H38.6957V110.873C38.691 110.314 38.5641 109.901 38.3149 109.633C38.0705 109.366 37.6874 109.232 37.1657 109.232C36.7427 109.232 36.3713 109.347 36.0517 109.576C35.7321 109.805 35.4829 110.106 35.3043 110.479V116H34V105H35.3043V109.189Z" fill="currentColor"/>
<path fill-rule="evenodd" clip-rule="evenodd" d="M43.0523 116.845C43.7538 117.615 44.6637 118 45.7821 118C47.1649 118 48.2019 117.441 48.8932 116.323L48.0316 115.618C47.7723 115.97 47.4699 116.254 47.1242 116.468C46.7785 116.682 46.3566 116.789 45.8584 116.789C45.1568 116.789 44.5773 116.526 44.1198 116.003C43.6674 115.473 43.431 114.781 43.4107 113.925H49V113.307C49 111.922 48.7026 110.858 48.1078 110.115C47.513 109.372 46.6794 109 45.6068 109C44.951 109 44.3409 109.193 43.7767 109.578C43.2175 109.957 42.7803 110.487 42.4651 111.166C42.1551 111.839 42 112.607 42 113.468V113.74C42 115.035 42.3508 116.069 43.0523 116.845ZM44.6938 110.794C45.0677 110.265 45.5301 110 46.0812 110C46.6519 110 47.1045 110.252 47.4391 110.755C47.7736 111.251 47.9607 111.955 48 112.865V113H44C44.0886 112.052 44.3198 111.317 44.6938 110.794Z" fill="currentColor"/>
<path d="M53 110.351C52.8394 110.317 52.6654 110.3 52.478 110.3C51.782 110.3 51.3097 110.675 51.0612 111.425V117H50V109.146H51.0325L51.0497 110.053C51.3977 109.351 51.891 109 52.5297 109C52.7361 109 52.8929 109.034 53 109.102V110.351Z" fill="currentColor"/>
<path fill-rule="evenodd" clip-rule="evenodd" d="M61.1284 114.939C61.7091 114.227 62 113.288 62 112.119V112.006C62 110.785 61.7122 109.824 61.136 109.122C60.5655 108.419 59.7786 108.068 58.775 108.068C57.7714 108.068 56.9842 108.396 56.4137 109.051V105H55V115.858H56.2991L56.3679 114.975C56.9384 115.658 57.7459 116 58.7903 116C59.7684 116 60.5478 115.646 61.1284 114.939ZM60.4651 109.765C60.8213 110.275 61 110.997 61 111.933C61 112.958 60.8189 113.725 60.4579 114.235C60.0963 114.745 59.5908 115 58.9413 115C58.0622 115 57.4151 114.579 57 113.738V110.262C57.3907 109.421 58.0329 109 58.9267 109C59.5957 109 60.1085 109.255 60.4651 109.765Z" fill="currentColor"/>
<path d="M64 117.018C64 116.727 64.081 116.485 64.2429 116.291C64.4113 116.097 64.6607 116 64.991 116C65.3214 116 65.5708 116.097 65.7392 116.291C65.9126 116.485 66 116.727 66 117.018C66 117.297 65.9126 117.531 65.7392 117.718C65.5708 117.906 65.3214 118 64.991 118C64.6607 118 64.4113 117.906 64.2429 117.718C64.081 117.531 64 117.297 64 117.018Z" fill="currentColor"/>
<path d="M24.6155 100C24.5799 99.1088 24.5355 97.9973 24.5355 97.865L24.571 97.6708C24.8465 95.6241 25.0242 91.3279 25.0331 90.0311C25.0864 83.9878 23.4693 79.5589 23.4515 79.5148C22.2075 76.03 23.7713 71.2484 25.273 67.4729C26.4814 64.4378 28.8361 55.2628 29.1472 52.3691C29.1738 52.1045 29.3337 51.8751 29.5647 51.7516C29.6803 51.6898 29.8135 51.6634 29.9379 51.6634C30.0712 51.6634 30.2045 51.6986 30.32 51.7604C30.8887 52.0603 31.3596 52.4574 31.7062 52.9426C32.417 53.913 33.0656 55.6774 32.1416 58.5535C32.0172 58.9328 31.9283 59.5416 31.9016 59.9473C31.8839 60.0444 31.7417 60.4765 31.6084 60.8649C31.3152 61.756 30.942 62.8676 30.8798 63.5026C30.862 63.6527 30.9331 63.8028 31.0486 63.891C31.1286 63.9524 31.2264 63.9792 31.3152 63.9792C31.3685 63.9792 31.4218 63.9702 31.4752 63.9524C33.1812 63.3084 34.6829 62.6293 35.9535 61.9145C36.2556 61.7471 36.5755 61.65 36.9131 61.6321C37.3841 61.6059 38.3348 61.5529 39.4189 61.5529H39.5343C39.7209 61.5529 39.8898 61.4385 39.952 61.2616C40.2363 60.4682 40.6361 58.4829 40.8849 57.0272C40.9116 56.8508 40.8405 56.6743 40.6895 56.5773C39.5255 55.8451 38.3081 55.3069 37.0641 54.9805C35.9001 54.6805 35.1093 54.1424 34.7006 53.3925C34.1675 52.4132 34.5051 51.4075 34.5051 51.3987C36.0601 51.5486 39.872 51.9192 41.5692 52.1486C41.5869 52.1486 41.6136 52.1486 41.6313 52.1486C41.8535 52.1486 42.0401 51.9898 42.0667 51.7692C42.1378 51.2928 42.12 50.887 42.0134 50.5165L41.8979 50.093C41.7824 49.6519 41.6491 49.1755 41.4625 48.6285C41.2049 47.8786 41.0627 47.1817 41.0271 46.5465C40.9205 44.2616 42.4311 43.2293 43.2485 43C44.2437 45.3908 46.1718 50.0666 46.314 50.6488C46.4118 51.0635 46.3229 52.8103 46.0652 55.0951C46.0475 55.2363 46.1097 55.3863 46.2163 55.4745C46.8827 56.048 47.6469 56.7008 48.5621 57.4948C48.8997 57.7859 49.0597 58.2359 48.9797 58.677L47.9578 64.2877C47.7624 65.3904 47.6025 66.5728 47.4692 67.9048C47.4425 68.1782 47.3981 68.4343 47.327 68.6726C47.1493 69.2987 46.7139 69.6781 46.3762 69.8813C46.2163 69.9784 46.1363 70.1636 46.1719 70.3489L46.2163 70.5604C46.2518 70.7194 46.2874 70.8868 46.314 71.0542C46.3673 71.3723 46.2518 71.7071 45.9941 71.9191L42.902 74.5038C42.2 75.3068 41.2226 76.5065 40.263 77.9356C39.6943 78.7737 39.1345 79.6828 38.5836 80.5733C37.5884 82.1793 36.6466 83.7055 35.7313 84.764C35.4647 85.0815 35.2959 85.4878 35.1982 86.0876C34.9849 87.3845 35.909 97.3974 36.1489 99.9738H24.6155V100Z" fill="currentColor"/>
<path fill-rule="evenodd" clip-rule="evenodd" d="M42.6676 42.0138C42.7037 42.0064 42.7353 42 42.7733 42C42.9428 42 43.1123 42.0973 43.1837 42.2389C43.4869 42.9555 46.1095 49.2367 46.2879 49.9799C46.4574 50.6876 46.163 53.5805 46.0559 54.5891C46.2451 54.7517 46.4422 54.9207 46.6483 55.0974C47.171 55.5457 47.7519 56.044 48.4109 56.615C48.8658 57.0043 49.0799 57.6147 48.9729 58.2075L47.9471 63.8341C47.7508 64.9225 47.5902 66.0987 47.4653 67.426C47.4386 67.7265 47.3851 68.0097 47.3137 68.2749C47.0996 69.0712 46.5288 69.5317 46.163 69.7527L46.1641 69.7575C46.2172 69.9948 46.2704 70.2322 46.3146 70.469C46.4038 70.9469 46.2165 71.4337 45.8419 71.7521L42.7376 74.344C42.1221 75.0609 41.132 76.264 40.1687 77.697C39.7078 78.3716 39.247 79.112 38.791 79.8445C38.691 80.0052 38.5912 80.1656 38.4917 80.3248C37.4837 81.9526 36.5292 83.492 35.5926 84.5887C35.3696 84.8456 35.2358 85.1903 35.1555 85.7034C34.9325 87.0923 36.1635 100 36.1635 100H30.6151H28.2424H23.6307C23.6307 100 23.5236 97.4785 23.5414 97.3901L23.5771 97.1602C23.8358 95.1698 24.0231 90.9411 24.0321 89.5606C24.0945 83.5452 22.4978 79.2185 22.48 79.1743C21.1776 75.5298 22.7743 70.6374 24.3086 66.7803C25.5485 63.6573 27.8677 54.4918 28.1621 51.7493C28.2067 51.3423 28.4565 50.9796 28.8222 50.7849C29.0095 50.6876 29.2058 50.6434 29.4109 50.6434C29.6161 50.6434 29.8213 50.6965 30.0086 50.7938C30.6419 51.13 31.1593 51.5723 31.5518 52.112C32.3278 53.1648 33.0325 55.0756 32.0513 58.1278C31.9442 58.4728 31.855 59.0567 31.8283 59.4283C31.8184 59.5426 31.6882 59.9318 31.5234 60.4245C31.2417 61.2665 30.8588 62.4109 30.8025 63.0026C32.1494 62.4984 33.7551 61.8168 35.2358 60.9943C35.6015 60.7906 35.985 60.6759 36.3865 60.649C36.9306 60.6138 37.8851 60.5696 38.9465 60.5696H39.0447C39.3212 59.8002 39.7226 57.7828 39.9635 56.3938C38.9555 55.7657 37.7602 55.1995 36.4489 54.8545C35.1555 54.5271 34.2635 53.9167 33.7907 53.0497C33.1663 51.8996 33.5499 50.7407 33.5677 50.6965C33.6301 50.5195 33.7996 50.3956 33.987 50.3956H34.0316C34.2377 50.4162 34.4691 50.4391 34.7199 50.4639C36.6292 50.6531 39.6587 50.9532 41.1409 51.1565C41.1945 50.7938 41.2034 50.4311 41.1053 50.086L40.9893 49.6614C40.9716 49.598 40.9537 49.5332 40.9355 49.467C40.8338 49.0986 40.7199 48.6856 40.5611 48.2282C40.2846 47.4408 40.133 46.6977 40.0972 46.0165C39.9724 43.4509 41.7119 42.2831 42.6484 42.0177C42.655 42.0164 42.6613 42.0151 42.6676 42.0138ZM45.3426 50.1766C45.2542 49.7794 44.0873 46.8575 42.4873 43C41.9126 43.3002 40.8695 44.1123 40.9491 45.9484C40.9756 46.5397 41.117 47.2018 41.3557 47.908C41.525 48.392 41.6407 48.8224 41.7436 49.2053C41.7589 49.2623 41.774 49.3183 41.7889 49.3733L41.9126 49.8323C42.0276 50.2472 42.0541 50.715 41.9745 51.2535C41.9126 51.6949 41.5325 52.0127 41.0994 52.0127C41.0552 52.0127 41.0198 52.0127 40.9756 52.0038C39.4198 51.792 36.0871 51.4566 34.3632 51.2888C34.3279 51.6066 34.3279 52.1098 34.5931 52.5953C34.9379 53.2308 35.6362 53.6899 36.6705 53.9635C37.9523 54.2989 39.2076 54.855 40.401 55.6142C40.7015 55.7996 40.8607 56.1527 40.7988 56.5058C40.7458 56.8323 40.2419 59.7456 39.8529 60.8221C39.7292 61.1755 39.3932 61.405 39.022 61.405H38.9247C37.8568 61.405 36.9123 61.4579 36.443 61.4842L36.4407 61.4843C36.1843 61.5022 35.9279 61.5814 35.6804 61.7138C34.3897 62.4379 32.8693 63.1353 31.1631 63.7796C31.0571 63.8237 30.951 63.841 30.8449 63.841C30.6504 63.841 30.4648 63.7796 30.3056 63.6646C30.0582 63.4792 29.9344 63.1794 29.9609 62.879C30.0228 62.2526 30.3321 61.2727 30.7035 60.1515C30.7292 60.0722 30.7566 59.9886 30.7837 59.9057C30.8682 59.6475 30.9507 59.3954 30.9775 59.2952C31.0128 58.8715 31.1012 58.2447 31.2339 57.8299C32.1002 55.1375 31.5167 53.5045 30.8714 52.6129C30.562 52.1892 30.1554 51.8361 29.6427 51.5625C29.5896 51.536 29.5277 51.5184 29.4658 51.5184C29.4128 51.5184 29.3509 51.536 29.2979 51.5625C29.1918 51.6155 29.1211 51.7214 29.1122 51.8361C28.794 54.7491 26.4426 64.0001 25.2314 67.0632C23.764 70.7705 22.2346 75.4488 23.4281 78.8122C23.4282 78.8127 23.4289 78.8147 23.4301 78.818C23.4956 79.0009 25.0713 83.4 25.0193 89.4759C25.0105 90.7819 24.8337 95.1073 24.5596 97.1642L24.5331 97.3585C24.5419 97.5439 24.5684 98.2323 24.595 99H28.3166H30.6681H35.1942C34.876 95.5931 34.0892 86.7568 34.2925 85.4771C34.3986 84.7881 34.5931 84.3119 34.9202 83.9322C35.8042 82.8903 36.7324 81.3901 37.7136 79.7921C37.7766 79.6898 37.8405 79.5858 37.9051 79.4806C38.3759 78.714 38.888 77.8802 39.3933 77.135C40.3657 75.6872 41.3469 74.4779 42.001 73.7102C42.0249 73.6804 42.0488 73.6585 42.0727 73.6366C42.0842 73.626 42.0957 73.6155 42.1072 73.6041L45.1835 71.0179C45.3161 70.9028 45.3779 70.7264 45.3514 70.5679C45.3249 70.4087 45.2896 70.2496 45.2542 70.091L45.21 69.8789C45.1305 69.5171 45.2895 69.1463 45.6078 68.952C45.873 68.7845 46.2266 68.4841 46.3593 67.999C46.4211 67.7868 46.4564 67.5489 46.483 67.3016C46.6067 65.9599 46.7659 64.7678 46.9692 63.6473L47.9858 58.0329C48.0389 57.7504 47.9416 57.4502 47.7206 57.2649C47.0676 56.6952 46.492 56.1981 45.9741 55.7509C45.7698 55.5745 45.5744 55.4058 45.3868 55.2435C45.1658 55.0492 45.0509 54.7668 45.0862 54.4755C45.3603 51.9597 45.4133 50.4856 45.3426 50.1766Z" fill="currentColor"/>
<path d="M30.5452 66.0744C30.5452 66.0744 28.7804 66.8157 28 64.4595C28 64.4595 32.1414 63.3124 35.6356 61.3619C35.9282 61.1939 36.2564 61.0974 36.5845 61.0795C37.6842 61.0086 40.3091 60.9031 42.136 61.1856C42.4996 61.2386 42.81 61.4591 42.9873 61.7767C44.1491 63.9387 45.3996 67.2305 45.9848 70.5229C46.0469 70.8494 45.9139 71.176 45.6656 71.3875L42.5529 74" stroke="currentColor" stroke-linecap="round" stroke-linejoin="round"/>
<path d="M46.0327 70C46.0327 70 46.9996 69.6224 47.2824 68.6242C47.3554 68.3546 47.401 68.0844 47.4284 67.8416C47.5469 66.6097 47.702 65.3784 47.9301 64.1549L48.9792 58.4363C49.0613 57.9867 48.8971 57.5281 48.5504 57.2314C46.954 55.8646 42.475 52.034 42.1192 51.8902C41.6813 51.7283 34.1097 51 34.1097 51C34.1097 51 33.1793 53.7335 36.737 54.6507C40.395 55.5949 43.3233 58.2654 43.8524 59.5423C44.1079 60.1538 43.3781 62.5454 43.3781 62.5454" stroke="currentColor" stroke-linecap="round" stroke-linejoin="round"/>
<path d="M41.9052 51.9592C42.0301 51.504 42.0884 50.937 41.9218 50.3186C41.7886 49.8203 41.647 49.2019 41.4138 48.4803C41.1557 47.7072 41.0307 47.0287 41.0058 46.4531C40.8726 43.6442 43.0877 43 43.0877 43C43.0877 43 45.7941 49.7344 45.9607 50.4474C46.1272 51.1604 45.7108 55 45.7108 55" stroke="currentColor" stroke-linecap="round" stroke-linejoin="round"/>
<path d="M41 57C41 57 40.3871 61.1922 40 62" stroke="currentColor" stroke-linecap="round" stroke-linejoin="round"/>
<path d="M31.0029 63.6045C31.4232 61.7267 32.081 60.3179 32.1541 59.3167C32.1815 58.918 32.2729 58.2979 32.4008 57.9169C33.3144 55.135 32.7662 53.3719 31.9531 52.2822C31.5329 51.7152 30.9938 51.3431 30.5279 51.095C30.0071 50.8292 29.3767 51.1481 29.3128 51.7152C28.9747 54.7629 26.6175 63.7289 25.3385 66.8827C23.7853 70.7101 22.1865 75.4857 23.4656 78.9852C23.4656 78.9852 25.1466 83.3618 25.0918 89.5456C25.0736 91.1667 24.8725 95.3399 24.6167 97.2183L24.2056 99.5125L37.0511 100C37.0511 100 35.2605 87.4991 35.5711 85.6117C35.6533 85.1247 35.7904 84.6551 36.1193 84.283C37.5811 82.5997 39.1799 79.7294 40.7787 77.4257C41.9207 75.7692 43.0902 74.4136 43.7024 73.7401C43.9764 73.4391 44.0678 73.0222 43.949 72.6328L41.9025 65.8729C41.7655 65.4212 41.3634 65.0934 40.8884 65.0312L35.1965 64.3486C34.7579 64.296 34.3103 64.3756 33.9174 64.5879L29.1848 67.0245C29.1848 67.0245 29.9797 68.9292 31.9257 68.7874C32.8211 68.7258 33.6159 68.5308 34.0545 68.4153C34.3011 68.3447 34.5661 68.3268 34.8219 68.3537L37.508 68.6815C37.9556 68.7342 38.2389 69.1864 38.0653 69.6028C37.6358 70.6126 36.8775 72.2607 36.2746 72.7123C35.3792 73.3859 32.7297 75.1578 31.606 77.638" stroke="currentColor" stroke-linecap="round" stroke-linejoin="round"/>
<path d="M54.3546 48.9727C54.1546 48.3364 53.6546 47.8363 53.0273 47.6454L51 47L53.0273 46.3545C53.6637 46.1545 54.1546 45.6546 54.3546 45.0273L55 43L55.6455 45.0273C55.8455 45.6636 56.3455 46.1545 56.9727 46.3545L59 47L56.9727 47.6454C56.3364 47.8455 55.8455 48.3454 55.6364 48.9727L54.9909 51L54.3546 48.9727Z" fill="currentColor"/>
<path fill-rule="evenodd" clip-rule="evenodd" d="M55.3057 43.1413C55.3322 43.0442 55.4205 43 55.5 43C55.5883 43 55.6678 43.0442 55.6943 43.1413L56.4362 45.4818C56.5952 45.9941 57.0015 46.4004 57.5137 46.5594L59.8542 47.3013C60.0486 47.3631 60.0486 47.6369 59.8542 47.6987L57.5137 48.4406C57.0015 48.5996 56.5952 49.0059 56.4362 49.5182L55.6943 51.8587C55.6678 51.9558 55.5795 52 55.5 52C55.4205 52 55.3322 51.9558 55.3057 51.8587L54.5638 49.5182C54.4048 49.0059 53.9985 48.5996 53.4863 48.4406L51.1457 47.6987C50.9514 47.6369 50.9514 47.3631 51.1457 47.3013L53.4863 46.5594C53.9985 46.4004 54.4048 45.9941 54.5638 45.4818L55.3057 43.1413ZM55.7769 46.0444L55.5 45L55.2231 46.0444C55.0174 46.8133 54.5111 47.4209 53.8703 47.6677L53 48L53.8703 48.3323C54.5111 48.5791 55.0174 49.1867 55.2231 49.9557L55.5 51L55.7769 49.9557C55.9826 49.1867 56.4889 48.5791 57.1297 48.3323L58 48L57.1297 47.6677C56.4889 47.4209 55.9826 46.8133 55.7769 46.0444Z" fill="currentColor"/>
<path d="M44.725 89.1335C44.5917 88.725 44.275 88.3998 43.8666 88.2749L43 87.9997L43.8666 87.7251C44.275 87.6002 44.6 87.275 44.725 86.8665L45 86L45.275 86.8665C45.4083 87.275 45.725 87.6002 46.1333 87.7251L47 87.9997L46.1333 88.2749C45.725 88.3998 45.4 88.725 45.275 89.1335L45 90L44.725 89.1335Z" fill="currentColor"/>
<path fill-rule="evenodd" clip-rule="evenodd" d="M44.8722 86.0911C44.8905 86.0277 44.9452 86 45 86C45.0548 86 45.1096 86.0277 45.1279 86.0911L45.621 87.6507C45.7306 87.9973 46.0046 88.2615 46.3425 88.3711L47.9041 88.8636C48.032 88.9092 48.032 89.0914 47.9041 89.1278L46.3425 89.6203C45.9954 89.7299 45.7306 90.0033 45.621 90.3407L45.1279 91.8996C45.1096 91.9637 45.0548 92 45 92C44.9452 92 44.8905 91.9637 44.8722 91.8996L44.379 90.3407C44.2695 89.994 43.9954 89.7299 43.6576 89.6203L42.0959 89.1278C41.968 89.0822 41.968 88.8999 42.0959 88.8636L43.6576 88.3711C44.0046 88.2615 44.2695 87.9973 44.379 87.6507L44.8722 86.0911ZM46 89C45.5345 88.8277 45.1724 88.4657 45 88C44.8276 88.4569 44.4569 88.8277 44 89C44.4655 89.1723 44.8276 89.5343 45 90C45.1724 89.5343 45.5345 89.1723 46 89Z" fill="currentColor"/>
<path d="M14.3563 68.9817C14.154 68.3486 13.6575 67.8444 13.023 67.6424L11 67L13.023 66.3582C13.6575 66.1563 14.1632 65.6607 14.3563 65.0183L15 63L15.6436 65.0183C15.8459 65.6514 16.3425 66.1563 16.9769 66.3582L19 67L16.9769 67.6424C16.3425 67.8444 15.8367 68.3393 15.6436 68.9817L15 71L14.3563 68.9817Z" fill="currentColor"/>
<path fill-rule="evenodd" clip-rule="evenodd" d="M15.3042 63.1426C15.3309 63.0445 15.4199 63 15.5001 63C15.5801 63 15.6691 63.0529 15.6959 63.1426L16.4347 65.4862C16.595 66.003 16.9956 66.4037 17.5119 66.5644L19.8531 67.3039C20.049 67.3658 20.049 67.6336 19.8531 67.6955L17.5119 68.4356C16.9956 68.5957 16.595 68.997 16.4347 69.5138L15.6959 71.8574C15.6691 71.9555 15.5801 72 15.5001 72C15.4199 72 15.3309 71.9555 15.3042 71.8574L14.5653 69.5138C14.4051 68.997 14.0045 68.5957 13.4882 68.4356L11.1469 67.6955C10.951 67.6336 10.951 67.3658 11.1469 67.3039L13.4882 66.5644C14.0045 66.4037 14.4051 66.003 14.5653 65.4862L15.3042 63.1426ZM15.7733 65.8598L15.5001 65L15.2267 65.8598C15.0177 66.5112 14.5113 67.0177 13.8601 67.2267L13 67.4997L13.8601 67.7733C14.5113 67.9823 15.0177 68.4888 15.2267 69.1402L15.5001 70L15.7733 69.1402C15.9823 68.4888 16.4888 67.9823 17.1399 67.7733L18 67.4997L17.1399 67.2267C16.4888 67.0177 15.9823 66.5112 15.7733 65.8598Z" fill="currentColor"/>
<path fill-rule="evenodd" clip-rule="evenodd" d="M0 34.1124C0 15.2694 15.228 0 34 0C52.772 0 67.9911 15.2694 68 34.1124V67.8876C68 86.7304 52.7809 102 34 102C15.2191 102 0 86.7221 0 67.8876V34.1124ZM65 34.0758C65 16.9427 51.0914 3 34.0002 3C16.9088 3 3 16.9339 3 34.0758V67.9239C3 85.0571 16.9088 99 34.0002 99C51.0914 99 65 85.0571 65 67.9239V34.0758Z" fill="currentColor"/>
<path d="M34.3334 33.2011C33.7886 35.1329 33.3078 37.0378 32.9072 38.9785C32.5146 40.9192 32.2742 42.8957 32.2101 44.8722C32.1701 46.8397 32.2582 48.8251 32.7549 50.6585C33.0033 51.5707 33.3398 52.4472 33.8286 53.1805C34.3174 53.9139 34.9424 54.5041 35.6875 54.8798H35.6955C35.9599 55.0139 36.0721 55.3627 35.9519 55.6578C35.8397 55.944 35.5433 56.0692 35.2869 55.9619C34.3494 55.5594 33.5242 54.835 32.9152 53.9586C32.2983 53.0822 31.8896 52.0805 31.6092 51.052C31.0643 49.004 30.9282 46.8844 31.0323 44.8185C31.1365 42.7436 31.4329 40.7046 31.8736 38.7102C32.3303 36.7248 32.9873 34.7483 34.077 33.067C34.1251 32.9955 34.2132 32.9775 34.2773 33.0312C34.3334 33.058 34.3494 33.1385 34.3334 33.2011Z" fill="currentColor"/>
<path d="M42.2817 34.0904C42.8844 33.6483 52.9274 26.6641 53.3529 19.998C48.8943 20.7584 43.4961 23.5167 39.33 27.0354C40.9166 20.6876 39.0463 13.8625 37.3089 9C37.3089 9 37.309 9.00883 37.3001 9.00883V9C34.2952 13.1906 30.6432 18.7869 30.4039 25.7888C27.3635 21.2623 22.9226 17.1424 18.8452 15.1886C18.6768 23.7378 25.1564 31.1817 25.6173 31.7741C22.639 29.7849 16.1505 29.7142 14.0054 29.7761C13.775 30.0678 20.9016 36.1592 28.2411 37.3527C28.0017 37.4411 21.6905 39.3596 21.008 41.7996C27.0355 42.7544 32.221 38.334 33.3025 37.6002C34.1357 38.5992 35.9439 43.0373 43.9659 45C43.3099 41.7378 38.4347 38.8998 38.2308 38.7495C49.3552 39.4391 53.5124 35.6464 54 35.3547C51.9524 34.6916 47.3431 32.7024 42.2817 34.0904Z" fill="currentColor" stroke="currentColor" stroke-width="1.116" stroke-linecap="round" stroke-linejoin="round"/>
<path d="M37 14C37 14 34.3943 32.5078 34 36" stroke="currentColor" stroke-width="0.744" stroke-linecap="round" stroke-linejoin="round"/>
<path d="M37 38L34 36" stroke="currentColor" stroke-width="0.744" stroke-linecap="round" stroke-linejoin="round"/>
<path d="M38 20C38 20 35.3053 21.2836 35 23" stroke="currentColor" stroke-width="0.744" stroke-linecap="round" stroke-linejoin="round"/>
<path d="M32 22C32 22 35.4271 23.1687 34.9554 26" stroke="currentColor" stroke-width="0.744" stroke-linecap="round" stroke-linejoin="round"/>
<path d="M38 27C38 27 34.4624 28.8371 34 32" stroke="currentColor" stroke-width="0.744" stroke-linecap="round" stroke-linejoin="round"/>
<path d="M31 28C31 28 34.4378 31.2827 33.9532 34" stroke="currentColor" stroke-width="0.744" stroke-linecap="round" stroke-linejoin="round"/>
<path d="M34 15C34 15 35.0816 16.9927 34.9951 18" stroke="currentColor" stroke-width="0.744" stroke-linecap="round" stroke-linejoin="round"/>
<path d="M22 21L32 36" stroke="currentColor" stroke-width="0.744" stroke-linecap="round" stroke-linejoin="round"/>
<path d="M30 37L33 36" stroke="currentColor" stroke-width="0.744" stroke-linecap="round" stroke-linejoin="round"/>
<path d="M21 32L33 36" stroke="currentColor" stroke-width="0.744" stroke-linecap="round" stroke-linejoin="round"/>
<path d="M28.2469 24C28.2469 24 27.3408 27.6986 29 29" stroke="currentColor" stroke-width="0.744" stroke-linecap="round" stroke-linejoin="round"/>
<path d="M27 31.2253C27 31.2253 28.9085 30.0679 30 33" stroke="currentColor" stroke-width="0.744" stroke-linecap="round" stroke-linejoin="round"/>
<path d="M22 23C22 23 24.4606 23.3806 25 24" stroke="currentColor" stroke-width="0.744" stroke-linecap="round" stroke-linejoin="round"/>
<path d="M25 34.7943C25 34.7943 26.6101 33.6095 28 34.6018" stroke="currentColor" stroke-width="0.744" stroke-linecap="round" stroke-linejoin="round"/>
<path d="M28 33C28 33 29.0174 35.5205 30 36" stroke="currentColor" stroke-width="0.744" stroke-linecap="round" stroke-linejoin="round"/>
<path d="M49 24L34 36" stroke="currentColor" stroke-width="0.744" stroke-linecap="round" stroke-linejoin="round"/>
<path d="M37 38L34 36" stroke="currentColor" stroke-width="0.744" stroke-linecap="round" stroke-linejoin="round"/>
<path d="M47 36.2038L34 36.7962" stroke="currentColor" stroke-width="0.744" stroke-linecap="round" stroke-linejoin="round"/>
<path d="M42 27C42 27 41.5385 31.0445 40 32" stroke="currentColor" stroke-width="0.744" stroke-linecap="round" stroke-linejoin="round"/>
<path d="M41 33.9231C41 33.9231 38.9196 31.7958 37 34" stroke="currentColor" stroke-width="0.744" stroke-linecap="round" stroke-linejoin="round"/>
<path d="M47 27.2868C47 27.2868 44.6842 26.8721 44 27.8051" stroke="currentColor" stroke-width="0.744" stroke-linecap="round" stroke-linejoin="round"/>
<path d="M41 37C41 37 39.5642 35.9268 38 36.004" stroke="currentColor" stroke-width="0.744" stroke-linecap="round" stroke-linejoin="round"/>
<path d="M39 34C39 34 37.2329 35.9637 36 36" stroke="currentColor" stroke-width="0.744" stroke-linecap="round" stroke-linejoin="round"/>
<path d="M15.6522 38.9043C15.9412 38.5766 16.3172 38.4128 16.7803 38.4128C17.5864 38.4128 17.993 38.8327 18 39.6726V42H17.3478V39.6693C17.3455 39.4154 17.2821 39.2277 17.1575 39.1061C17.0353 38.9846 16.8437 38.9238 16.5828 38.9238C16.3713 38.9238 16.1857 38.9759 16.0259 39.0801C15.866 39.1843 15.7415 39.321 15.6522 39.4902V42H15V37H15.6522V38.9043Z" fill="currentColor"/>
<path fill-rule="evenodd" clip-rule="evenodd" d="M15.7674 42.7674V43H15.2326V42.7674H15.7674ZM15.7674 42.2326H16V42.7674H15.7674V42.2326ZM15.2326 42.2326H15.7674V37.7674H16V37.2326H15.7674V37H15.2326V37.2326H15V37.7674H15.2326V42.2326ZM15.2326 42.2326H15V42.7674H15.2326V42.2326ZM15.2326 37.7674V37.2326H15.7674V37.7674H15.2326ZM15.6337 37.6337V37.3663H15.3663V37.6337H15.6337ZM16.5301 40.1242H16.5286C16.582 40.0804 16.6379 40.039 16.6964 40L16.7674 40.0952V40.5961C16.6507 40.7115 16.5528 40.8457 16.4734 41L16.2326 40.889V40.4229C16.2425 40.4106 16.2525 40.3984 16.2627 40.3864V40.8758L16.5211 40.5585H16.6337L16.5531 40.5193L16.7373 40.293L16.5301 40.1242ZM16.5531 40.5193L16.3933 40.4415L16.3663 40.4969V40.5585H16.5211L16.5531 40.5193ZM16.2326 40V40.4229C16.1441 40.5329 16.0665 40.6527 16 40.7818L16.2326 40.889V43H16.7674V40.5961C16.8381 40.5262 16.9156 40.4632 17 40.4068L16.7674 40.0952V40V39.6713C16.8414 39.658 16.9188 39.6512 17 39.6512V39.646C17.3418 39.646 17.5437 39.7452 17.6595 39.8888L17.9107 39.6203C17.9994 39.6708 18.0768 39.7304 18.1438 39.7982C18.3069 39.9632 18.4252 40.1933 18.4864 40.5001L18.3663 40.501H18.4866C18.5161 40.6491 18.5323 40.815 18.5339 41L19 40.9968C18.9947 40.3741 18.8384 39.8683 18.4913 39.5172C18.1395 39.1613 17.6277 39 17 39C16.9197 39 16.8421 39.0097 16.7674 39.0291V37H16.2326V39.2983C16.1522 39.3403 16.0746 39.3898 16 39.4467L16.0904 39.585C16.0592 39.6349 16.0291 39.6881 16 39.7444L16.1991 40C16.2101 39.9787 16.2213 39.9581 16.2326 39.9379V40ZM16.2326 39.8025L16.0904 39.585C16.1356 39.5126 16.1831 39.4468 16.2326 39.3878V39.8025ZM16.2747 39.8669C16.2604 39.8898 16.2464 39.9134 16.2326 39.9379V39.8025L16.2747 39.8669ZM16.3944 39.2251C16.3393 39.2464 16.2853 39.2707 16.2326 39.2983V39.3878C16.2842 39.3263 16.3382 39.272 16.3944 39.2251ZM16.2747 39.8669C16.4144 39.644 16.5777 39.5024 16.7674 39.4407V39.6713C16.5873 39.7037 16.4279 39.7751 16.2856 39.8835L16.2747 39.8669ZM16.3944 39.2251C16.5134 39.1792 16.6379 39.148 16.7674 39.1312V39.4407C16.8409 39.4168 16.9184 39.4048 17 39.4048V39.4216C17.3874 39.4216 17.6856 39.4919 17.9107 39.6203L18 39.5248C17.7628 39.2308 17.4117 39.1112 17 39.1112V39.1165C16.9208 39.1165 16.8433 39.1213 16.7674 39.1312V39.0291C16.6339 39.0637 16.5094 39.1291 16.3944 39.2251ZM18.4866 40.501L18.4864 40.5001L18.6337 40.499V40.501H18.4866ZM16.2627 40.3864V40.1242H16.5286C16.4314 40.2039 16.3428 40.2914 16.2627 40.3864ZM18.3663 43.6337V43.3663H18.6337V43.6337H18.3663ZM17.6337 43.3663H17.3663V43.6337H17.6337V43.3663ZM17.6337 40.5012H17.4996L17.5009 40.5L17.6337 40.4988V40.5012ZM17.499 40.5L17.5979 40.4081L17.5009 40.5L17.499 40.5ZM17.4978 40.5012H17.3663L17.499 40.5L17.4978 40.5012ZM17.4978 40.5012L17.4021 40.5901L17.4037 40.5919L17.4996 40.5012H17.4978ZM16.3663 43.3663V43.6337H16.6337V43.3663H16.3663ZM15.3663 43.3663H15.6337V43.6337H15.3663V43.3663ZM16.6337 37.6337H16.3663V37.3663H16.6337V37.6337ZM17.7674 42.7674H18V42.2326H17.7674H17.2326H17V42.7674H17.2326H17.7674ZM17.4994 40C17.772 40.24 17.8848 40.5873 17.889 40.9962L17.3542 41C17.3506 40.647 17.2525 40.4311 17.111 40.3064L17.4994 40Z" fill="currentColor"/>
<path d="M54.6522 60.9044C54.9412 60.5766 55.3172 60.4127 55.7803 60.4127C56.5864 60.4127 56.993 60.8327 57 61.6727V64H56.3478V61.6694C56.3455 61.4155 56.2821 61.2277 56.1575 61.106C56.0353 60.9849 55.8437 60.9238 55.5828 60.9238C55.3713 60.9238 55.1857 60.976 55.0259 61.0799C54.866 61.1844 54.7415 61.3211 54.6522 61.4905V64H54V59H54.6522V60.9044Z" fill="currentColor"/>
<path fill-rule="evenodd" clip-rule="evenodd" d="M54.7674 64.7675V65H54.2326V64.7675H54.7674ZM54.7674 64.2325H55V64.7675H54.7674V64.2325ZM54.2326 64.2325H54.7674V59.7674H55V59.2326H54.7674V59H54.2326V59.2326H54V59.7674H54.2326V64.2325ZM54.2326 64.2325H54V64.7675H54.2326V64.2325ZM54.2326 59.7674V59.2326H54.7674V59.7674H54.2326ZM54.6337 59.6337V59.3663H54.3663V59.6337H54.6337ZM55.5301 62.124H55.529C55.5822 62.0803 55.638 62.039 55.6964 62L55.7674 62.0952V62.5959C55.6507 62.7114 55.5528 62.8458 55.4734 63L55.2326 62.8892V62.4229C55.2425 62.4106 55.2525 62.3985 55.2627 62.3864V62.876L55.5212 62.5585H55.6337L55.5531 62.5193L55.7373 62.293L55.5301 62.124ZM55.5531 62.5193L55.3933 62.4415L55.3663 62.4965V62.5585H55.5212L55.5531 62.5193ZM55.2326 62V62.4229C55.1441 62.533 55.0665 62.6528 55 62.7821L55.2326 62.8892V65H55.7674V62.5959C55.8381 62.526 55.9156 62.4631 56 62.4069L55.7674 62.0952V62V61.6715C55.8414 61.6582 55.9188 61.6515 56 61.6515V61.6465C56.3417 61.6465 56.5437 61.7455 56.6595 61.8885L56.9106 61.6201C56.9993 61.6706 57.0767 61.73 57.1438 61.7978C57.3069 61.9631 57.4252 62.1932 57.4864 62.5001L57.3663 62.501H57.4866C57.5161 62.6491 57.5323 62.8149 57.5339 63L58 62.9968C57.9947 62.3741 57.8384 61.868 57.4913 61.5171C57.1395 61.1608 56.6277 61 56 61C55.9197 61 55.8421 61.0097 55.7674 61.029V59H55.2326V61.2982C55.1522 61.3402 55.0746 61.3896 55 61.4465L55.0904 61.5848C55.0592 61.6348 55.0291 61.6879 55 61.7441L55.1991 62C55.2101 61.9787 55.2213 61.958 55.2326 61.9379V62ZM55.2326 61.8024L55.0904 61.5848C55.1356 61.5124 55.183 61.4466 55.2326 61.3876V61.8024ZM55.2747 61.8669C55.2604 61.8897 55.2464 61.9134 55.2326 61.9379V61.8024L55.2747 61.8669ZM55.3943 61.2251C55.3392 61.2463 55.2853 61.2707 55.2326 61.2982V61.3876C55.2842 61.3262 55.3381 61.272 55.3943 61.2251ZM55.2747 61.8669C55.4144 61.6438 55.5777 61.5024 55.7674 61.4408V61.6715C55.5873 61.7038 55.4279 61.7751 55.2856 61.8835L55.2747 61.8669ZM55.3943 61.2251C55.5133 61.1792 55.6379 61.148 55.7674 61.1312V61.4408C55.8409 61.4169 55.9184 61.405 56 61.405V61.4218C56.3874 61.4218 56.6855 61.4919 56.9106 61.6201L57 61.5245C56.7628 61.2305 56.4117 61.1115 56 61.1115V61.1165C55.9208 61.1165 55.8433 61.1214 55.7674 61.1312V61.029C55.6338 61.0636 55.5093 61.129 55.3943 61.2251ZM57.4866 62.501L57.4864 62.5001L57.6337 62.499V62.501H57.4866ZM55.2627 62.3864V62.124H55.529C55.4317 62.2038 55.3429 62.2913 55.2627 62.3864ZM57.3663 65.634V65.366H57.6337V65.634H57.3663ZM56.6337 65.366H56.3663V65.634H56.6337V65.366ZM56.6337 62.501H56.4998L56.5009 62.5L56.6337 62.499V62.501ZM56.4989 62.5L56.5979 62.408L56.5009 62.5L56.4989 62.5ZM56.4978 62.501H56.3663L56.4989 62.5L56.4978 62.501ZM56.4978 62.501L56.4021 62.59L56.4037 62.592L56.4998 62.501H56.4978ZM55.3663 65.366V65.634H55.6337V65.366H55.3663ZM54.3663 65.366H54.6337V65.634H54.3663V65.366ZM55.6337 59.6337H55.3663V59.3663H55.6337V59.6337ZM56.7674 64.7675H57V64.2325H56.7674H56.2326H56V64.7675H56.2326H56.7674ZM56.4994 62C56.772 62.24 56.8848 62.5875 56.889 62.9967L56.3542 63C56.3506 62.6475 56.2525 62.4317 56.111 62.3067L56.4994 62Z" fill="currentColor"/>
<path d="M16.5001 75.974C16.7617 75.974 16.974 75.762 16.974 75.5C16.974 75.239 16.7617 75.026 16.5001 75.026C16.2383 75.026 16.026 75.239 16.026 75.5C16.026 75.762 16.2383 75.974 16.5001 75.974Z" fill="currentColor"/>
<path d="M15.5 73C15.7762 73 16 72.7764 16 72.5C16 72.2236 15.7762 72 15.5 72C15.2238 72 15 72.2236 15 72.5C15 72.7764 15.2238 73 15.5 73Z" fill="currentColor"/>
<path d="M53.4999 57.974C53.7617 57.974 53.974 57.7617 53.974 57.5001C53.974 57.2383 53.7617 57.026 53.4999 57.026C53.2382 57.026 53.026 57.2383 53.026 57.5001C53.026 57.7617 53.2382 57.974 53.4999 57.974Z" fill="currentColor"/>
<path d="M53.5 54C53.7761 54 54 53.7761 54 53.5C54 53.2239 53.7761 53 53.5 53C53.2239 53 53 53.2239 53 53.5C53 53.7761 53.2239 54 53.5 54Z" fill="currentColor"/>
</svg>
