<svg width="99" height="120" viewBox="0 0 99 120" fill="none" xmlns="http://www.w3.org/2000/svg">
    <path d="M11.4571 102C10.0481 102 8.772 101.701 7.62882 101.105C6.49896 100.496 5.60839 99.66 4.95705 98.5973C4.31902 97.534 4 96.3351 4 95C4 93.6649 4.32566 92.466 4.977 91.4027C5.62833 90.34 6.51892 89.5105 7.64879 88.9143C8.79196 88.3045 10.068 88 11.477 88C12.6202 88 13.6636 88.1947 14.6074 88.5834C15.5511 88.9721 16.3487 89.5362 17 90.2751L15.3252 91.8113C14.315 90.748 13.0721 90.2166 11.5966 90.2166C10.6396 90.2166 9.78221 90.4241 9.02453 90.8392C8.26686 91.2408 7.67534 91.8049 7.24998 92.5309C6.82463 93.2563 6.61195 94.0793 6.61195 95C6.61195 95.9201 6.82463 96.7431 7.24998 97.4691C7.67534 98.1951 8.26686 98.7657 9.02453 99.1801C9.78221 99.5823 10.6396 99.7834 11.5966 99.7834C13.0721 99.7834 14.315 99.245 15.3252 98.1694L17 99.7249C16.3487 100.464 15.5445 101.027 14.5874 101.417C13.6437 101.805 12.6003 102 11.4571 102Z"
          fill="currentColor"/>
    <path fill-rule="evenodd" clip-rule="evenodd"
          d="M25.8309 93.042C25.0639 92.3473 23.9505 92 22.4907 92C21.6743 92 20.901 92.1033 20.1712 92.3105C19.4413 92.5177 18.8165 92.8167 18.297 93.2064L19.2062 94.87C19.5774 94.5655 20.0289 94.3275 20.5608 94.1572C21.1052 93.9868 21.6557 93.9011 22.2124 93.9011C23.0289 93.9011 23.6412 94.0841 24.0495 94.4496C24.4701 94.815 24.6804 95.3394 24.6804 96.022V96.1682H22.1196C20.6969 96.1682 19.6515 96.4364 18.9835 96.9722C18.3279 97.4966 18 98.1973 18 99.075C18 99.6356 18.1485 100.141 18.4454 100.592C18.7546 101.031 19.1877 101.378 19.7443 101.634C20.301 101.878 20.9505 102 21.6928 102C22.4351 102 23.066 101.89 23.5855 101.671C24.1175 101.439 24.5258 101.11 24.8103 100.684V101.872H27V96.1501C27 94.7607 26.6103 93.7247 25.8309 93.042ZM23.1223 99.7101C22.7173 99.9034 22.2503 100 21.7215 100C21.1814 100 20.7595 99.9079 20.4557 99.7242C20.1519 99.5401 20 99.2917 20 98.979C20 98.3263 20.6076 98 21.8228 98H24V98.8551C23.8312 99.2229 23.5387 99.5077 23.1223 99.7101Z"
          fill="currentColor"/>
    <path d="M36.7604 92C38.0405 92 39.0671 92.3641 39.8403 93.0923C40.6134 93.8211 41 94.9011 41 96.333V102H38.6236V96.6298C38.6236 95.7651 38.4144 95.1171 37.9962 94.6851C37.5779 94.2409 36.9822 94.0187 36.2091 94.0187C35.3346 94.0187 34.6439 94.2776 34.1369 94.7965C33.6299 95.3025 33.3764 96.0368 33.3764 97V102H31V92.1114H33.2624V93.3891C33.6552 92.932 34.1496 92.5862 34.7452 92.3519C35.3409 92.1175 36.0127 92 36.7604 92Z"
          fill="currentColor"/>
    <path d="M49.7605 92C51.0406 92 52.0671 92.3641 52.8403 93.0923C53.6134 93.8211 54 94.9011 54 96.333V102H51.6236V96.6298C51.6236 95.7651 51.4144 95.1171 50.9962 94.6851C50.578 94.2409 49.9822 94.0187 49.2091 94.0187C48.3346 94.0187 47.6439 94.2776 47.1369 94.7965C46.6299 95.3025 46.3764 96.0368 46.3764 97V102H44V92.1114H46.2624V93.3891C46.6552 92.932 47.1496 92.5862 47.7452 92.3519C48.3409 92.1175 49.0127 92 49.7605 92Z"
          fill="currentColor"/>
    <path fill-rule="evenodd" clip-rule="evenodd"
          d="M63.8307 93.042C63.0636 92.3473 61.9504 92 60.4907 92C59.6742 92 58.901 92.1033 58.1711 92.3105C57.4412 92.5177 56.8164 92.8167 56.2969 93.2064L57.2061 94.87C57.5773 94.5655 58.0288 94.3275 58.5608 94.1572C59.1051 93.9868 59.6556 93.9011 60.2123 93.9011C61.0288 93.9011 61.6412 94.0841 62.0494 94.4496C62.47 94.815 62.6803 95.3394 62.6803 96.022V96.1682H60.1195C58.6969 96.1682 57.6515 96.4364 56.9835 96.9722C56.3278 97.4966 56 98.1973 56 99.075C56 99.6356 56.1485 100.141 56.4454 100.592C56.7546 101.031 57.1876 101.378 57.7443 101.634C58.301 101.878 58.9504 102 59.6927 102C60.435 102 61.0659 101.89 61.5855 101.671C62.1174 101.439 62.5257 101.11 62.8102 100.684V101.872H65V96.1501C65 94.7607 64.61 93.7247 63.8307 93.042ZM61.1223 99.7101C60.7173 99.9034 60.2503 100 59.7215 100C59.1814 100 58.7595 99.9079 58.4557 99.7242C58.1519 99.5401 58 99.2917 58 98.979C58 98.3263 58.6076 98 59.8228 98H62V98.8551C61.8312 99.2229 61.5387 99.5077 61.1223 99.7101Z"
          fill="currentColor"/>
    <path fill-rule="evenodd" clip-rule="evenodd"
          d="M76.439 91.7263C75.6498 91.2723 74.751 91.0453 73.742 91.0453C73.0695 91.0453 72.449 91.1657 71.8797 91.406C71.3239 91.6462 70.8386 91.9996 70.4245 92.4674V87H68V101.86H70.3085V100.478C70.7091 100.985 71.2008 101.365 71.7829 101.619C72.3778 101.873 73.0311 102 73.742 102C74.751 102 75.6498 101.773 76.439 101.319C77.2409 100.865 77.8679 100.224 78.3205 99.3967C78.7737 98.5556 79 97.594 79 96.5127C79 95.4314 78.7737 94.4765 78.3205 93.6487C77.8679 92.8208 77.2409 92.1802 76.439 91.7263ZM76.1481 99.036C75.5933 99.6787 74.8803 100 74.0097 100C73.4418 100 72.9308 99.8601 72.4761 99.5803C72.022 99.2874 71.6624 98.8747 71.3972 98.3442C71.1326 97.813 71 97.1981 71 96.5C71 95.8012 71.1326 95.1863 71.3972 94.6558C71.6624 94.1247 72.022 93.7195 72.4761 93.4398C72.9308 93.1468 73.4418 93 74.0097 93C74.8803 93 75.5933 93.3213 76.1481 93.964C76.716 94.6066 77 95.4522 77 96.5C77 97.5478 76.716 98.3927 76.1481 99.036Z"
          fill="currentColor"/>
    <path fill-rule="evenodd" clip-rule="evenodd"
          d="M81.4312 89.5803C81.7187 89.8605 82.075 90 82.5 90C82.9374 90 83.2937 89.8533 83.5688 89.5605C83.8563 89.2538 84 88.8804 84 88.4402C84 88.0264 83.8563 87.6867 83.5688 87.4204C83.2813 87.1401 82.925 87 82.5 87C82.075 87 81.7187 87.1467 81.4312 87.4402C81.1437 87.7198 81 88.0734 81 88.5003C81 88.9266 81.1437 89.2868 81.4312 89.5803ZM83 91H81V102H83V91Z"
          fill="currentColor"/>
    <path d="M90.3459 102C89.5128 102 88.6988 101.896 87.9038 101.689C87.1089 101.482 86.4741 101.22 86 100.903L86.9233 99.1662C87.3847 99.4586 87.9356 99.6966 88.5768 99.8791C89.2307 100.05 89.8718 100.135 90.5003 100.135C91.9358 100.135 92.6539 99.7758 92.6539 99.0563C92.6539 98.7156 92.4677 98.4776 92.096 98.3435C91.7369 98.2094 91.1536 98.0813 90.3459 97.9599C89.5001 97.8379 88.8075 97.6977 88.2692 97.5394C87.7437 97.3806 87.2824 97.1063 86.8846 96.7167C86.5001 96.3144 86.3076 95.7598 86.3076 95.053C86.3076 94.127 86.7117 93.3894 87.5194 92.8409C88.3398 92.2803 89.4423 92 90.8269 92C91.5323 92 92.237 92.0791 92.9424 92.2374C93.6477 92.3836 94.2241 92.5848 94.6734 92.8409L93.7501 94.5776C92.8782 94.0901 91.8977 93.8467 90.8079 93.8467C90.1025 93.8467 89.5643 93.95 89.1925 94.1572C88.8335 94.3523 88.6537 94.6145 88.6537 94.9431C88.6537 95.3092 88.8462 95.5707 89.2307 95.7296C89.6285 95.8758 90.2372 96.0159 91.0576 96.1501C91.878 96.2715 92.5516 96.4116 93.0771 96.5705C93.6026 96.7288 94.0513 96.997 94.423 97.3745C94.8075 97.7527 95 98.2885 95 98.9832C95 99.8972 94.5831 100.629 93.7501 101.177C92.917 101.726 91.782 102 90.3459 102Z"
          fill="currentColor"/>
    <path d="M1.23384 109.145L1.27615 110.133C1.85899 109.378 2.62045 109 3.56052 109C5.17274 109 5.9859 109.936 6 111.809V117H4.69565V111.802C4.69095 111.236 4.56404 110.817 4.31492 110.546C4.0705 110.275 3.68743 110.14 3.16569 110.14C2.74265 110.14 2.37133 110.256 2.05171 110.488C1.73208 110.721 1.48296 111.025 1.30435 111.403V117H0V109.145H1.23384Z"
          fill="currentColor"/>
    <path fill-rule="evenodd" clip-rule="evenodd"
          d="M9.05231 116.845C9.75381 117.615 10.6637 118 11.7822 118C13.1648 118 14.2019 117.441 14.8932 116.323L14.0316 115.617C13.7723 115.971 13.4699 116.254 13.1242 116.468C12.7785 116.682 12.3566 116.788 11.8584 116.788C11.1569 116.788 10.5773 116.526 10.1198 116.002C9.66741 115.473 9.43099 114.78 9.41068 113.925H15V113.308C15 111.922 14.7026 110.859 14.1078 110.115C13.5131 109.372 12.6794 109 11.6068 109C10.9509 109 10.341 109.193 9.77668 109.578C9.2175 109.957 8.78028 110.487 8.46515 111.166C8.15507 111.839 8 112.607 8 113.468V113.741C8 115.035 8.35075 116.07 9.05231 116.845ZM10.6938 110.794C11.0676 110.264 11.5302 110 12.0812 110C12.6519 110 13.1046 110.252 13.4391 110.755C13.7737 111.252 13.9606 111.954 14 112.864V113H10C10.0886 112.051 10.3198 111.316 10.6938 110.794Z"
          fill="currentColor"/>
    <path fill-rule="evenodd" clip-rule="evenodd"
          d="M16.8961 110.08C16.2987 110.795 16 111.76 16 112.974C16 114.241 16.2987 115.242 16.8961 115.976C17.4986 116.71 18.2848 117.078 19.2549 117.078C20.2353 117.078 21.0087 116.77 21.5755 116.156V116.826C21.5755 117.488 21.3815 118.001 20.9934 118.366C20.6105 118.731 20.0744 118.913 19.3851 118.913C18.5069 118.913 17.7641 118.56 17.1564 117.855L16.4212 118.654C16.7225 119.071 17.159 119.4 17.7309 119.64C18.3027 119.88 18.8873 120 19.4847 120C20.5569 120 21.4096 119.71 22.0427 119.129C22.6809 118.548 23 117.754 23 116.746V109.144H21.7057L21.6367 110.008C21.07 109.336 20.2812 109 19.2703 109C18.2848 109 17.4934 109.36 16.8961 110.08ZM18.5535 115.228C18.1845 114.708 18 113.995 18 113.089C18 112.069 18.187 111.3 18.5609 110.78C18.9348 110.26 19.4538 110 20.1181 110C20.9545 110 21.5818 110.384 22 111.151V114.819C21.5966 115.606 20.9644 116 20.1033 116C19.4391 116 18.9225 115.743 18.5535 115.228Z"
          fill="currentColor"/>
    <path fill-rule="evenodd" clip-rule="evenodd"
          d="M30.2754 116.925C30.3277 117.363 30.3957 117.668 30.4792 117.84H32V117.711C31.8014 117.24 31.7021 116.607 31.7021 115.81V111.815C31.6812 110.939 31.3938 110.252 30.8399 109.754C30.2859 109.252 29.5203 109 28.5431 109C27.9264 109 27.3594 109.118 26.8421 109.353C26.3299 109.588 25.9224 109.909 25.6193 110.315C25.3214 110.717 25.1724 111.134 25.1724 111.567H26.6305C26.6305 111.187 26.8055 110.863 27.1556 110.597C27.5058 110.329 27.9395 110.195 28.4569 110.195C29.0474 110.195 29.4942 110.351 29.7973 110.66C30.1004 110.965 30.2519 111.377 30.2519 111.896V112.578H28.8409C27.6233 112.578 26.6775 112.829 26.0033 113.332C25.3344 113.829 25 114.53 25 115.433C25 116.177 25.2665 116.791 25.7996 117.278C26.3378 117.759 27.025 118 27.8611 118C28.7966 118 29.6013 117.641 30.2754 116.925ZM30.0681 116.649C29.6392 116.883 29.1855 117 28.7072 117C28.2068 117 27.7973 116.873 27.4784 116.618C27.1594 116.362 27 116.008 27 115.555C27 114.518 27.9347 114 29.8041 114H31V115.734C30.8075 116.109 30.4969 116.414 30.0681 116.649Z"
          fill="currentColor"/>
    <path d="M34.5942 107V108.921H35.966V109.969H34.5942V114.889C34.5942 115.206 34.6553 115.446 34.7776 115.607C34.8998 115.763 35.1081 115.841 35.4023 115.841C35.5472 115.841 35.7464 115.812 36 115.754V116.853C35.6695 116.951 35.348 117 35.0357 117C34.4743 117 34.0509 116.817 33.7657 116.45C33.4805 116.083 33.3379 115.563 33.3379 114.889V109.969H32V108.921H33.3379V107H34.5942Z"
          fill="currentColor"/>
    <path fill-rule="evenodd" clip-rule="evenodd"
          d="M38.2466 106.293C38.0822 106.488 38 106.727 38 107.01C38 107.293 38.0822 107.528 38.2466 107.717C38.417 107.906 38.6666 108 38.9954 108C39.3242 108 39.5739 107.906 39.7443 107.717C39.9148 107.528 40 107.293 40 107.01C40 106.727 39.9148 106.488 39.7443 106.293C39.5739 106.098 39.3242 106 38.9954 106C38.6666 106 38.417 106.098 38.2466 106.293ZM38 117H40V109H38V117Z"
          fill="currentColor"/>
    <path d="M44.5266 115.144L46.5635 109H48L45.051 117H43.9793L41 109H42.4365L44.5266 115.144Z" fill="currentColor"/>
    <path fill-rule="evenodd" clip-rule="evenodd"
          d="M50.0523 116.845C50.7538 117.615 51.6638 118 52.7822 118C54.1648 118 55.2019 117.441 55.8933 116.323L55.0316 115.617C54.7724 115.971 54.4699 116.254 54.1242 116.468C53.7785 116.682 53.3566 116.788 52.8584 116.788C52.1569 116.788 51.5773 116.526 51.1199 116.002C50.6674 115.473 50.4311 114.78 50.4107 113.925H56V113.308C56 111.922 55.7026 110.859 55.1079 110.115C54.5131 109.372 53.6794 109 52.6068 109C51.951 109 51.341 109.193 50.7767 109.578C50.2175 109.957 49.7803 110.487 49.4651 111.166C49.1551 111.839 49 112.607 49 113.468V113.741C49 115.035 49.3508 116.07 50.0523 116.845ZM51.6938 110.794C52.0677 110.264 52.5302 110 53.0812 110C53.6519 110 54.1046 110.252 54.4392 110.755C54.7737 111.252 54.9607 111.954 55 112.864V113H51C51.0886 112.051 51.3198 111.316 51.6938 110.794Z"
          fill="currentColor"/>
    <path d="M64.7092 115.537C64.7092 115.136 64.5769 114.826 64.3118 114.607C64.0515 114.382 63.5933 114.19 62.9373 114.029C62.2861 113.869 61.7675 113.677 61.3814 113.452C61 113.227 60.7163 112.96 60.5302 112.649C60.3488 112.34 60.2582 111.971 60.2582 111.543C60.2582 110.832 60.5186 110.23 61.0396 109.738C61.5651 109.246 62.235 109 63.0489 109C63.9048 109 64.598 109.254 65.1282 109.762C65.6627 110.27 65.9303 110.92 65.9303 111.712H64.6328C64.6328 111.305 64.4813 110.955 64.1789 110.66C63.8813 110.366 63.505 110.219 63.0489 110.219C62.5791 110.219 62.2117 110.337 61.9466 110.572C61.6814 110.807 61.5488 111.115 61.5488 111.495C61.5488 111.853 61.6722 112.123 61.9187 112.305C62.1652 112.486 62.6094 112.661 63.2512 112.826C63.8976 112.992 64.4212 113.19 64.821 113.419C65.2208 113.65 65.5166 113.928 65.7072 114.254C65.9026 114.575 66 114.968 66 115.433C66 116.208 65.7307 116.831 65.1908 117.302C64.6515 117.767 63.9511 118 63.0907 118C62.4861 118 61.9512 117.877 61.4861 117.631C61.0209 117.385 60.6558 117.043 60.3907 116.604C60.1302 116.16 60 115.682 60 115.168H61.2907C61.314 115.666 61.4861 116.061 61.807 116.356C62.1326 116.645 62.5605 116.788 63.0907 116.788C63.5789 116.788 63.9697 116.676 64.2631 116.452C64.5607 116.222 64.7092 115.917 64.7092 115.537Z"
          fill="currentColor"/>
    <path fill-rule="evenodd" clip-rule="evenodd"
          d="M74.1348 116.036C74.7116 115.307 75 114.346 75 113.152V113.029C75 111.764 74.709 110.775 74.1269 110.065C73.5501 109.355 72.7635 109 71.7683 109C70.7421 109 69.9402 109.338 69.3634 110.015L69.2941 109.145H68V120H69.4169V116.225C69.9937 116.829 70.785 117.131 71.7907 117.131C72.7767 117.131 73.5574 116.766 74.1348 116.036ZM73.4266 110.781C73.8086 111.302 74 112.012 74 112.912C74 113.934 73.8061 114.705 73.419 115.226C73.0369 115.742 72.5199 116 71.8679 116C71.0296 116 70.4068 115.637 70 114.909V111.098C70.4118 110.367 71.0296 110 71.8527 110C72.5199 110 73.0439 110.26 73.4266 110.781Z"
          fill="currentColor"/>
    <path fill-rule="evenodd" clip-rule="evenodd"
          d="M81.2755 116.925C81.3275 117.363 81.3957 117.668 81.4795 117.84H83V117.711C82.8014 117.24 82.7021 116.607 82.7021 115.81V111.815C82.6812 110.939 82.3934 110.252 81.8395 109.754C81.2856 109.252 80.5203 109 79.5429 109C78.9262 109 78.3595 109.118 77.842 109.353C77.33 109.588 76.922 109.909 76.6194 110.315C76.3215 110.717 76.1722 111.134 76.1722 111.567H77.6306C77.6306 111.187 77.8056 110.863 78.1555 110.597C78.5054 110.329 78.9397 110.195 79.4571 110.195C80.0475 110.195 80.494 110.351 80.7973 110.66C81.1005 110.965 81.2519 111.377 81.2519 111.896V112.578H79.8408C78.6236 112.578 77.6772 112.829 77.0031 113.332C76.3344 113.829 76 114.53 76 115.433C76 116.177 76.2661 116.791 76.7998 117.278C77.3375 117.759 78.0251 118 78.8613 118C79.7962 118 80.6014 117.641 81.2755 116.925ZM80.3012 116.649C79.9792 116.883 79.6391 117 79.2804 117C78.9051 117 78.5981 116.873 78.3587 116.618C78.1194 116.362 78 116.008 78 115.555C78 114.518 78.701 114 80.1029 114H81V115.734C80.8555 116.109 80.6226 116.414 80.3012 116.649Z"
          fill="currentColor"/>
    <path d="M87.6997 116.788C88.2063 116.788 88.6488 116.628 89.0271 116.307C89.4061 115.987 89.6157 115.586 89.6567 115.104H91C90.9742 115.602 90.8108 116.075 90.5086 116.524C90.207 116.973 89.8029 117.332 89.2963 117.599C88.7943 117.866 88.2626 118 87.6997 118C86.5688 118 85.668 117.607 84.998 116.821C84.3327 116.029 84 114.949 84 113.581V113.332C84 112.486 84.1488 111.735 84.4451 111.078C84.7421 110.42 85.1667 109.909 85.7196 109.545C86.2771 109.182 86.9345 109 87.6918 109C88.623 109 89.3955 109.292 90.0099 109.874C90.629 110.457 90.959 111.214 91 112.144H89.6567C89.6157 111.583 89.4114 111.123 89.043 110.765C88.6792 110.401 88.2295 110.219 87.6918 110.219C86.9702 110.219 86.4101 110.492 86.0112 111.038C85.6171 111.577 85.42 112.361 85.42 113.388V113.668C85.42 114.668 85.6171 115.438 86.0112 115.978C86.4048 116.519 86.9676 116.788 87.6997 116.788Z"
          fill="currentColor"/>
    <path fill-rule="evenodd" clip-rule="evenodd"
          d="M93.0527 116.845C93.7538 117.615 94.6639 118 95.7822 118C97.1654 118 98.2023 117.441 98.8936 116.323L98.0321 115.617C97.7726 115.971 97.4703 116.254 97.1247 116.468C96.779 116.682 96.3565 116.788 95.8584 116.788C95.1573 116.788 94.5778 116.526 94.1198 116.002C93.6677 115.473 93.4311 114.78 93.4108 113.925H99V113.308C99 111.922 98.703 110.859 98.1083 110.115C97.513 109.372 96.6798 109 95.6068 109C94.951 109 94.3412 109.193 93.7768 109.578C93.2176 109.957 92.7806 110.487 92.4652 111.166C92.1551 111.839 92 112.607 92 113.468V113.741C92 115.035 92.3509 116.07 93.0527 116.845ZM94.6938 110.794C95.0677 110.264 95.53 110 96.0808 110C96.6518 110 97.1046 110.252 97.4391 110.755C97.7736 111.252 97.9606 111.954 98 112.864V113H94C94.0884 112.051 94.3199 111.316 94.6938 110.794Z"
          fill="currentColor"/>
    <path fill-rule="evenodd" clip-rule="evenodd"
          d="M79.8083 12.1551C82.7057 15.053 85.081 18.2752 86.9425 21.7031C90.8131 27.5454 92.3007 34.2618 91.9504 40.9196C92.1005 51.7335 88.0551 62.5937 79.8083 70.8446C63.6096 87.0518 37.347 87.0518 21.1485 70.8446C4.95105 54.638 4.94994 28.362 21.1485 12.1551C37.347 -4.05171 63.6096 -4.05171 79.8083 12.1551ZM47.9678 4.01434C39.213 4.55561 30.6134 8.15273 23.9232 14.8112C9.35893 29.3066 9.35893 52.8075 23.9232 67.3027C26.3944 69.7626 29.1247 71.8015 32.0278 73.4269C37.6258 76.3824 43.2127 76.984 46.57 74.2204C49.5335 71.7814 49.4149 67.4232 49.2974 63.1026C49.2745 62.2604 49.2516 61.4197 49.2516 60.5949C48.8273 66.3545 44.3824 70.2872 39.9364 71.1305C40.5013 67.4781 41.7717 62.7026 47.558 59.7526C46.8771 60.0347 46.1375 60.3596 45.3502 60.7053C39.2344 63.3915 30.2399 67.3419 23.5189 62.3609C28.6462 57.7859 37.6103 55.2758 47.558 57.5048C34.2907 52.8692 26.1053 49.3581 19.7264 33.9532C36.6899 37.1369 41.9123 44.3014 48.4043 55.3981C38.101 36.2947 41.4815 17.9684 51.0626 7.63902C54.1085 14.5224 55.7434 27.5152 54.6147 37.9803C54.022 43.4752 53.101 47.9643 52.3169 51.7861C51.9568 53.5415 51.6255 55.156 51.3682 56.6626C50.1687 63.6857 53.4141 68.5323 61.79 71.1305C61.2251 67.4781 59.9547 62.7026 54.1684 59.7526C54.8493 60.0347 55.589 60.3596 56.3763 60.7054C62.4921 63.3915 71.4862 67.3419 78.2072 62.3609C73.0799 57.7859 64.1161 55.2758 54.1684 57.5048C67.4355 52.8692 75.6214 49.3581 82 33.9532C65.0368 37.1369 59.814 44.3014 53.3221 55.3981C55.6958 50.8067 62.2098 29.2074 54.7964 8.40516C53.7951 5.59517 50.9917 3.83575 48.0011 4.01214C47.9899 4.01324 47.9789 4.01434 47.9678 4.01434Z"
          fill="currentColor"/>
</svg>
