<svg width="145" height="120" viewBox="0 0 145 120" fill="none" xmlns="http://www.w3.org/2000/svg">
    <path fill-rule="evenodd" clip-rule="evenodd"
          d="M51.2945 69.559C54.7578 67.5068 58.2879 63.8973 61.0647 60.378C61.3633 59.793 62.0319 59.4735 62.6871 59.649C68.6509 61.2646 74.2223 62.2187 79.4106 61.5842C83.8231 61.0441 88.0042 59.3429 91.9709 55.8866C90.045 55.378 87.7899 54.838 85.5481 54.469C83.0654 54.0594 80.6047 53.8479 78.6795 54.1089C78.1312 54.2529 77.5919 54.3789 77.0526 54.4825C76.2859 54.6265 75.5505 54.1179 75.4079 53.3438C75.2697 52.6012 75.7288 51.8857 76.442 51.7012C76.9412 51.5392 77.4805 51.4177 78.051 51.3277C82.597 50.1035 87.438 47.2637 91.3735 43.5779C94.7789 40.3916 97.4797 36.5932 98.6831 32.6958C93.9539 33.8164 89.5102 35.2701 85.5661 37.4482C81.0863 39.9235 77.2086 43.3529 74.2312 48.3439H74.2268C73.83 49.0099 72.9743 49.2304 72.3102 48.8389C71.6372 48.4429 71.4142 47.5697 71.8065 46.8902L71.8154 46.8767H71.811C71.8511 46.8092 71.8957 46.7372 71.9358 46.6697C75.2786 40.9181 77.583 35.9586 78.7421 30.8146C79.7625 26.2826 79.8962 21.5616 79.0674 15.9586C75.1449 19.568 72.0873 23.5689 69.9835 27.9928C67.6524 32.8983 66.4802 38.3349 66.5872 44.3519C66.6406 45.018 66.2216 45.648 65.562 45.8325C64.8132 46.0441 64.0332 45.6031 63.8237 44.847C62.3885 39.7075 60.5387 35.4591 57.7619 32.2232C55.4174 29.4869 52.3687 27.4393 48.2993 26.1386C48.4063 26.7372 48.5044 27.3132 48.6024 27.8803C50.0153 36.1161 51.1386 42.6687 57.9758 47.2367C58.689 47.6012 59.3977 48.0243 60.1064 48.5059C60.7526 48.9469 60.9221 49.8335 60.4852 50.486C60.0618 51.1206 59.2239 51.3007 58.5865 50.909C57.8555 50.5175 57.1691 50.1125 56.5273 49.694C54.7667 48.8119 52.9927 48.3258 51.2277 48.1278C49.2175 47.9028 47.2073 48.0558 45.2416 48.4338C45.9147 50.8145 48.1656 55.846 55.2703 57.0072C56.037 57.1287 56.5629 57.8578 56.4426 58.6363C56.3223 59.4104 55.6002 59.9415 54.8291 59.82C43.3251 57.9388 42.1707 47.5517 42.1662 47.5202C42.0726 46.7552 42.5985 46.0621 43.3429 45.9406C46.0039 45.297 48.754 44.9865 51.5441 45.297L51.6155 45.306C47.9471 40.7156 46.9755 35.0495 45.83 28.3618C45.6027 27.0387 45.3665 25.6706 45.1347 24.4239C44.992 23.6499 45.4957 22.9073 46.2624 22.7633C46.4629 22.7273 46.6591 22.7318 46.8418 22.7768C52.6138 24.1539 56.7813 26.7192 59.9058 30.3601C61.6486 32.3942 63.057 34.7479 64.2248 37.4077C64.7864 33.6319 65.874 30.0855 67.4563 26.7642C70.0682 21.2736 74.0172 16.4086 79.1565 12.1287C79.7578 11.6291 80.6453 11.7191 81.1395 12.3223C81.2959 12.5158 81.3936 12.7363 81.4382 12.9658C82.7753 20.072 82.7581 25.8686 81.5055 31.4401C80.9972 33.7084 80.2794 35.9316 79.3747 38.1818C80.9034 36.9622 82.5259 35.8956 84.2329 34.955C89.0738 32.2817 94.5247 30.6571 100.297 29.4194C101.059 29.2574 101.808 29.7479 101.968 30.5176C102.013 30.7246 102.009 30.9271 101.968 31.1206C101.09 36.3816 97.7291 41.5257 93.3081 45.666C90.8434 47.9748 88.0354 49.9775 85.1376 51.5212C85.4277 51.5617 85.717 51.6112 86.0118 51.6562C89.439 52.2232 92.8397 53.1413 95.1667 53.8074C95.9158 54.0189 96.3568 54.8065 96.1426 55.5625C96.0714 55.828 95.9291 56.0531 95.7414 56.2242C90.7542 61.3142 85.4363 63.7173 79.7539 64.4105C74.4274 65.0585 68.8336 64.1944 62.9055 62.6463C59.986 66.2331 56.398 69.6985 52.7654 71.8361C46.7527 75.378 39.8663 74.4735 34.6291 69.8425C28.5673 64.4825 26 54.874 26 46.6382C26 33.7579 31.1703 22.0972 39.5275 13.6588C47.8892 5.22052 59.4378 0 72.1898 0C74.9979 0 77.7479 0.252025 80.4225 0.738073L80.471 0.747069L80.6359 0.778576C82.4813 1.17911 81.7189 3.91988 80.3107 3.62736C77.6811 3.1233 74.9667 2.86229 72.1898 2.86229C60.2178 2.86229 49.3735 7.76327 41.5288 15.6841C33.6797 23.6049 28.8303 34.5544 28.8303 46.6427C28.8303 57.1377 33.0602 70.3915 45.1792 71.2241C45.1659 71.2331 48.6425 71.4086 51.2945 69.559Z"
          fill="currentColor"/>
    <path fill-rule="evenodd" clip-rule="evenodd"
          d="M84.121 82.0792C82.1084 82.7868 80.0374 83.3225 77.9406 83.6786C75.8479 84.0347 73.7197 84.2143 71.5737 84.2143C69.5655 84.2143 67.5794 84.0609 65.6334 83.7488C63.6917 83.4412 61.7591 82.9757 59.853 82.3513C59.111 82.11 58.3157 82.5101 58.0713 83.2393C57.8269 83.9731 58.2313 84.7593 58.9689 85.0013C60.9859 85.6603 63.0697 86.1567 65.1935 86.4951C67.3173 86.8289 69.4544 87 71.5737 87C73.8663 87 76.1545 86.8027 78.4161 86.4204C80.6735 86.0334 82.8949 85.4576 85.0587 84.6976C85.7914 84.4433 86.178 83.6478 85.92 82.9225C85.6628 82.2064 84.8537 81.8241 84.121 82.0792ZM79.3842 81.2914C81.6037 80.8281 83.7886 80.1336 85.9056 79.2219C86.0089 79.1838 86.1074 79.1324 86.206 79.0661C86.8667 78.6218 87.0607 77.6911 86.6381 76.9967C83.0648 71.2425 79.892 73.1937 75.1008 73.1937C73.7255 73.1937 72.4581 73.0708 71.6491 72.792L71.2266 72.6267C76.2109 70.4725 90.6064 66.608 97.9186 70.6142C98.6156 70.9969 99.4735 70.7134 99.8377 69.9811C100.202 69.2489 99.9323 68.3466 99.2353 67.9639C88.8489 62.2664 68.1165 70.7748 68.0581 70.8079C67.3569 71.148 67.0378 72.022 67.3524 72.7684C67.3524 72.7731 68.1615 74.7479 70.7637 75.6408C71.8783 76.0235 73.4558 76.1936 75.0962 76.1936C79.3748 76.1936 79.2352 74.6818 82.9165 77.1998C81.5817 77.6769 80.22 78.0549 78.8356 78.3478C76.7682 78.7777 74.6558 78.9998 72.5299 78.9998C70.8851 78.9998 69.2446 78.8675 67.6311 78.6077C66.0086 78.3478 64.4086 77.9557 62.8491 77.4407C62.0985 77.1951 61.2985 77.6344 61.0648 78.4282C60.8311 79.2169 61.2491 80.0581 61.9996 80.3035C63.7075 80.8662 65.4514 81.2914 67.2086 81.5748C68.9704 81.8583 70.7502 82 72.5344 82C74.8356 82 77.1322 81.7638 79.3842 81.2914ZM104.475 13.8097C101.539 10.8602 98.2066 8.30451 94.5669 6.23224C92.6514 5.21175 91.7338 7.82562 93.3735 8.82376L93.3821 8.82824C96.7146 10.7528 99.7751 13.1071 102.475 15.8239C110.315 23.7013 115.167 34.591 115.167 46.613C115.167 58.6351 110.315 69.5247 102.475 77.4021C94.6341 85.2838 83.7949 90.1583 71.829 90.1583C68.6482 90.1583 65.4986 89.805 62.4247 89.1195C61.1728 88.829 60.2729 91.2726 61.8144 91.8944C65.0887 92.6247 68.4477 93 71.829 93C84.5788 93 96.1222 87.8082 104.475 79.4159C112.828 71.0241 118 59.4228 118 46.6175C118 33.8032 112.832 22.2064 104.475 13.8097Z"
          fill="currentColor"/>
    <path d="M16 96V115H12.656V106.857H3.34405V115H0V96H3.34405V103.844H12.656V96H16Z" fill="currentColor"/>
    <path fill-rule="evenodd" clip-rule="evenodd"
          d="M34.9451 108.583C34.9817 108.145 35 107.806 35 107.569C35 106.07 34.6795 104.753 34.0385 103.62C33.4158 102.468 32.5366 101.581 31.4011 100.96C30.2839 100.32 29.011 100 27.5824 100C26.1356 100 24.8352 100.32 23.6814 100.96C22.5275 101.6 21.6209 102.496 20.9616 103.647C20.3206 104.781 20 106.061 20 107.486C20 108.93 20.3297 110.229 20.9891 111.381C21.6667 112.514 22.619 113.4 23.8462 114.04C25.0733 114.68 26.4927 115 28.1045 115C29.3682 115 30.5036 114.799 31.511 114.397C32.5183 113.995 33.3517 113.4 34.011 112.615L32.1703 110.503C31.1264 111.564 29.7985 112.093 28.1869 112.093C26.9231 112.093 25.8609 111.782 25 111.161C24.1575 110.521 23.6356 109.662 23.4341 108.583H34.9451ZM25.3201 103.831C26.0594 103.277 26.9571 103 28.0132 103C29.0869 103 29.9846 103.277 30.7062 103.831C31.428 104.385 31.8592 105.108 32 106H24C24.1584 105.092 24.5984 104.37 25.3201 103.831Z"
          fill="currentColor"/>
    <path d="M57.1142 101C58.9238 101 60.3572 101.547 61.4143 102.639C62.4715 103.713 63 105.334 63 107.5V116H59.6405V107.944C59.6405 106.648 59.3628 105.676 58.8074 105.028C58.252 104.362 57.4547 104.028 56.4154 104.028C55.2867 104.028 54.3818 104.417 53.701 105.195C53.0202 105.953 52.6798 107.047 52.6798 108.472V116H49.3202V107.944C49.3202 106.648 49.0425 105.676 48.4871 105.028C47.9317 104.362 47.1344 104.028 46.0952 104.028C44.9485 104.028 44.0347 104.408 43.3539 105.166C42.691 105.926 42.3595 107.028 42.3595 108.472V116H39V101.166H42.1983V103.056C42.7358 102.389 43.4076 101.88 44.2139 101.528C45.0202 101.176 45.916 101 46.9014 101C47.9765 101 48.9261 101.213 49.7503 101.639C50.5924 102.046 51.2553 102.658 51.7391 103.472C52.3304 102.694 53.0918 102.092 54.0235 101.667C54.9552 101.223 55.9854 101 57.1142 101Z"
          fill="currentColor"/>
    <path fill-rule="evenodd" clip-rule="evenodd"
          d="M78.5082 100.927C77.4324 100.309 76.2065 100 74.8309 100C73.8608 100 72.9701 100.173 72.1589 100.518C71.3651 100.863 70.6949 101.381 70.1482 102.071V100.163H67V120H70.3069V112.943C71.418 114.25 72.9261 114.904 74.8309 114.904C76.2065 114.904 77.4324 114.596 78.5082 113.978C79.602 113.36 80.4568 112.489 81.0741 111.362C81.6914 110.218 82 108.91 82 107.439C82 105.967 81.6914 104.669 81.0741 103.542C80.4568 102.416 79.602 101.544 78.5082 100.927ZM78.7224 110.76C77.8896 111.586 76.8202 112 75.5142 112C74.6624 112 73.8959 111.82 73.2145 111.461C72.5331 111.084 71.9937 110.553 71.5962 109.871C71.1987 109.188 71 108.398 71 107.5C71 106.601 71.1987 105.811 71.5962 105.128C71.9937 104.446 72.5331 103.925 73.2145 103.566C73.8959 103.188 74.6624 103 75.5142 103C76.8202 103 77.8896 103.413 78.7224 104.239C79.5741 105.066 80 106.152 80 107.5C80 108.847 79.5741 109.934 78.7224 110.76Z"
          fill="currentColor"/>
    <path d="M92.7514 115C90.9095 115 89.2407 114.595 87.7457 113.786C86.2683 112.959 85.1034 111.824 84.2518 110.382C83.417 108.939 83 107.312 83 105.5C83 103.688 83.4262 102.061 84.2777 100.618C85.1293 99.1758 86.2942 98.0493 87.7716 97.2399C89.2666 96.4136 90.9355 96 92.7781 96C94.2723 96 95.637 96.2639 96.8713 96.7916C98.1055 97.3194 99.1484 98.0848 100 99.0878L97.8097 101.172C96.4893 99.7298 94.8639 99.0084 92.9344 99.0084C91.6826 99.0084 90.5619 99.29 89.5708 99.8525C88.5798 100.398 87.8067 101.163 87.2502 102.149C86.6937 103.134 86.4162 104.251 86.4162 105.5C86.4162 106.749 86.6937 107.866 87.2502 108.851C87.8067 109.837 88.5798 110.611 89.5708 111.174C90.5619 111.718 91.6826 111.992 92.9344 111.992C94.8639 111.992 96.4893 111.262 97.8097 109.801L100 111.912C99.1484 112.915 98.0971 113.681 96.8453 114.208C95.6111 114.736 94.2464 115 92.7514 115Z"
          fill="currentColor"/>
    <path fill-rule="evenodd" clip-rule="evenodd"
          d="M114.181 101.564C112.989 100.521 111.257 100 108.986 100C107.715 100 106.513 100.156 105.378 100.467C104.242 100.777 103.27 101.225 102.463 101.81L103.876 104.306C104.454 103.849 105.156 103.492 105.984 103.236C106.83 102.98 107.687 102.852 108.553 102.852C109.823 102.852 110.776 103.126 111.41 103.675C112.065 104.223 112.392 105.01 112.392 106.033V106.252H108.408C106.195 106.252 104.569 106.655 103.53 107.459C102.511 108.245 102 109.296 102 110.613C102 111.454 102.231 112.212 102.693 112.889C103.174 113.547 103.847 114.068 104.713 114.452C105.579 114.817 106.59 115 107.744 115C108.899 115 109.88 114.836 110.689 114.507C111.516 114.159 112.151 113.666 112.594 113.026V114.808H116V106.225C116 104.141 115.394 102.587 114.181 101.564ZM111.464 111.421C110.756 111.806 109.938 112 109.013 112C108.067 112 107.329 111.816 106.798 111.448C106.266 111.08 106 110.584 106 109.958C106 108.653 107.063 108 109.19 108H113V109.71C112.705 110.446 112.193 111.016 111.464 111.421Z"
          fill="currentColor"/>
    <path d="M123.465 103.333C124.514 101.778 126.359 101 129 101V104.306C128.689 104.25 128.407 104.223 128.155 104.223C126.737 104.223 125.631 104.621 124.835 105.417C124.038 106.195 123.641 107.324 123.641 108.806V116H120V101.166H123.465V103.333Z"
          fill="currentColor"/>
    <path fill-rule="evenodd" clip-rule="evenodd"
          d="M144.945 108.583C144.982 108.145 145 107.806 145 107.569C145 106.07 144.68 104.753 144.039 103.62C143.416 102.468 142.537 101.581 141.401 100.96C140.284 100.32 139.011 100 137.583 100C136.136 100 134.836 100.32 133.681 100.96C132.528 101.6 131.621 102.496 130.961 103.647C130.32 104.781 130 106.061 130 107.486C130 108.93 130.33 110.229 130.99 111.381C131.667 112.514 132.619 113.4 133.847 114.04C135.073 114.68 136.493 115 138.105 115C139.368 115 140.504 114.799 141.511 114.397C142.519 113.995 143.352 113.4 144.011 112.615L142.171 110.503C141.127 111.564 139.799 112.093 138.187 112.093C136.923 112.093 135.861 111.782 135 111.161C134.158 110.521 133.636 109.662 133.435 108.583H144.945ZM135.32 103.831C136.06 103.277 136.957 103 138.014 103C139.087 103 139.985 103.277 140.706 103.831C141.428 104.385 141.859 105.108 142 106H134C134.159 105.092 134.599 104.37 135.32 103.831Z"
          fill="currentColor"/>
</svg>
