<svg width="153" height="120" viewBox="0 0 153 120" fill="none" xmlns="http://www.w3.org/2000/svg">
<path d="M17 112.59C16.727 114.958 15.8627 116.787 14.4067 118.079C12.961 119.36 11.0351 120 8.6289 120C6.02052 120 3.92774 119.052 2.35058 117.156C0.783527 115.26 0 112.723 0 109.545V107.393C0 105.313 0.363961 103.483 1.09189 101.905C1.82992 100.326 2.87124 99.1164 4.21588 98.276C5.56051 97.4253 7.11745 97 8.88671 97C11.2322 97 13.1127 97.6667 14.5281 98.9992C15.9435 100.321 16.7674 102.155 17 104.503H14.0731C13.8204 102.719 13.2694 101.428 12.4202 100.629C11.581 99.8293 10.4032 99.4297 8.88671 99.4297C7.02647 99.4297 5.56557 100.126 4.50402 101.52C3.45257 102.915 2.92685 104.897 2.92685 107.47V109.638C2.92685 112.067 3.4273 113.999 4.42819 115.434C5.42909 116.869 6.82933 117.587 8.6289 117.587C10.2465 117.587 11.485 117.218 12.3444 116.479C13.2138 115.731 13.7901 114.435 14.0731 112.59H17Z" fill="currentColor"/>
<path fill-rule="evenodd" clip-rule="evenodd" d="M25.2303 113.997H34.7541L36.9242 120H40L31.3036 97H28.6807L20 120H23.0913L25.2303 113.997ZM34 111H26L29.9919 100L34 111Z" fill="currentColor"/>
<path d="M60 120H57.0679L45.9321 102.277V120H43V97H45.9321L57.0984 114.803V97H60V120Z" fill="currentColor"/>
<path d="M82 120H79.068L67.9321 102.277V120H65V97H67.9321L79.0983 114.803V97H82V120Z" fill="currentColor"/>
<path fill-rule="evenodd" clip-rule="evenodd" d="M91.23 113.997H100.754L102.924 120H106L97.304 97H94.6811L86 120H89.0912L91.23 113.997ZM100 111H92L95.9924 100L100 111Z" fill="currentColor"/>
<path fill-rule="evenodd" clip-rule="evenodd" d="M109 120V97H116.205C118.597 97 120.392 97.5162 121.594 98.5485C122.804 99.5808 123.409 101.107 123.409 103.13C123.409 104.203 123.117 105.156 122.531 105.988C121.947 106.81 121.15 107.447 120.14 107.9C121.331 108.247 122.269 108.911 122.955 109.891C123.652 110.859 124 112.018 124 113.366C124 115.429 123.359 117.052 122.077 118.231C120.796 119.41 118.985 120 116.644 120H109ZM111 109V118H115.708C117.035 118 118.079 117.604 118.842 116.815C119.614 116.013 120 114.914 120 113.517C120 110.506 118.584 109 115.753 109H111ZM115.092 108H111V100H115.007C116.352 100 117.354 100.316 118.013 100.95C118.671 101.573 119 102.575 119 103.957C119 105.201 118.643 106.186 117.928 106.912C117.223 107.637 116.277 108 115.092 108Z" fill="currentColor"/>
<path d="M132 120H129V97H132V120Z" fill="currentColor"/>
<path d="M144.834 109.715C142.344 108.987 140.529 108.096 139.39 107.04C138.26 105.973 137.696 104.662 137.696 103.104C137.696 101.341 138.386 99.8849 139.768 98.7373C141.159 97.5794 142.963 97 145.181 97C146.694 97 148.04 97.297 149.219 97.8918C150.409 98.4865 151.327 99.3064 151.971 100.351C152.627 101.397 152.955 102.54 152.955 103.781H150.036C150.036 102.428 149.613 101.366 148.766 100.598C147.919 99.8191 146.724 99.4297 145.181 99.4297C143.75 99.4297 142.631 99.7523 141.824 100.398C141.028 101.033 140.63 101.92 140.63 103.057C140.63 103.97 141.008 104.743 141.764 105.379C142.53 106.004 143.825 106.578 145.65 107.101C147.485 107.624 148.917 108.203 149.945 108.838C150.984 109.463 151.75 110.197 152.244 111.037C152.748 111.877 153 112.867 153 114.004C153 115.818 152.305 117.274 150.913 118.371C149.522 119.457 147.661 120 145.333 120C143.82 120 142.409 119.708 141.099 119.124C139.788 118.53 138.775 117.72 138.059 116.695C137.354 115.67 137 114.507 137 113.205H139.919C139.919 114.558 140.408 115.629 141.386 116.418C142.374 117.197 143.69 117.587 145.333 117.587C146.865 117.587 148.04 117.269 148.857 116.633C149.673 115.997 150.081 115.131 150.081 114.035C150.081 112.938 149.704 112.092 148.947 111.498C148.191 110.893 146.82 110.299 144.834 109.715Z" fill="currentColor"/>
<path d="M117.336 75.4805C113.947 72.739 109.089 70.6709 103.459 69.4704C101.721 71.1334 99.9223 72.7175 98.0849 74.1984C102.809 74.7663 107.112 75.9621 110.448 77.6372C105.676 80.0335 98.9222 81.4498 91.7979 81.4498C86.9092 81.4498 82.1954 80.7812 78.1775 79.5902C85.6943 76.7841 93.766 71.3755 100.95 64.1768C110.833 54.2751 117.336 42.6887 118.347 33.1824L118.711 29.7699L115.305 30.1342C107.197 30.9993 97.5715 35.8854 88.7769 43.4699C88.7267 46.1658 88.5621 48.845 88.292 51.4785C95.8588 43.8989 104.655 38.3729 112.129 36.3671C110.125 43.8581 104.608 52.6767 97.0398 60.2588C90.3225 66.9926 82.633 72.1016 75.7595 74.5698C80.2007 66.0244 82.7502 54.2631 82.7502 41.6319C82.7502 25.6817 78.6844 11.1167 71.8779 2.66954L69.7254 0L67.573 2.66954C60.7975 11.076 56.7413 25.5404 56.7006 41.3946C57.4923 42.1304 58.272 42.8805 59.0397 43.6472C60.202 44.8143 61.3284 46.0101 62.4119 47.2322C62.2923 45.3894 62.2325 43.5059 62.2325 41.6343C62.2325 28.9695 65.0498 16.9998 69.7254 9.2523C74.4011 16.9998 77.2184 28.9719 77.2184 41.6343C77.2184 53.144 74.8913 64.081 70.9571 71.7949C68.3311 63.8725 62.7132 55.2168 55.0791 47.5677C45.1969 37.666 33.6334 31.1503 24.1459 30.1366L20.7402 29.7724L21.1038 33.1847C22.0771 42.346 28.1542 53.4412 37.4409 63.0961C39.6603 62.8612 41.9276 62.739 44.202 62.739C44.4747 62.739 44.7449 62.7414 45.0152 62.7462C44.1327 61.9434 43.2597 61.1095 42.4107 60.2588C34.8412 52.6767 29.3261 43.8581 27.322 36.3671C34.7981 38.3753 43.5993 43.9037 51.1664 51.4857C57.8606 58.1932 62.9499 65.8663 65.4229 72.7342C59.8384 69.9042 52.2833 68.2818 44.202 68.2818C33.7841 68.2818 24.2391 70.9729 18.6667 75.4829L16 77.6396L18.6667 79.7963C24.2391 84.3038 33.7865 86.9974 44.202 86.9974C50.8675 86.9974 57.2459 85.8926 62.4644 83.8605C60.7472 82.5929 57.906 81.3443 54.2565 80.4865C51.1186 81.1215 47.7177 81.4546 44.202 81.4546C37.0773 81.4546 30.3234 80.0384 25.5521 77.6419C30.3234 75.2456 37.0773 73.8294 44.202 73.8294C53.2591 73.8294 61.7111 76.1179 66.2624 79.7987C71.8348 84.3063 81.3822 87 91.8005 87C102.218 87 111.763 84.3087 117.336 79.7987L120 77.6419L117.336 75.4805Z" fill="currentColor"/>
</svg>
