<svg width="174" height="120" viewBox="0 0 174 120" fill="none" xmlns="http://www.w3.org/2000/svg">
<path d="M8.60433 120C6.97852 120 5.50613 119.638 4.18712 118.913C2.88343 118.174 1.85583 117.159 1.1043 115.868C0.368098 114.577 0 113.121 0 111.5C0 109.878 0.375767 108.422 1.1273 107.132C1.87884 105.841 2.90644 104.833 4.21012 104.109C5.52914 103.37 7.00153 103 8.62729 103C9.94635 103 11.1503 103.236 12.2393 103.708C13.3282 104.181 14.2485 104.865 15 105.763L13.0675 107.628C11.9018 106.337 10.4678 105.692 8.76536 105.692C7.66103 105.692 6.67177 105.944 5.79754 106.447C4.92331 106.935 4.2408 107.62 3.75 108.501C3.2592 109.383 3.0138 110.382 3.0138 111.5C3.0138 112.618 3.2592 113.617 3.75 114.499C4.2408 115.38 4.92331 116.072 5.79754 116.577C6.67177 117.064 7.66103 117.308 8.76536 117.308C10.4678 117.308 11.9018 116.655 13.0675 115.348L15 117.237C14.2485 118.134 13.3206 118.819 12.2163 119.292C11.1273 119.764 9.92331 120 8.60433 120Z" fill="currentColor"/>
<path fill-rule="evenodd" clip-rule="evenodd" d="M26.8142 115.297H35.1146L36.7747 119H40L32.5059 103H29.4704L22 119H25.1779L26.8142 115.297ZM30.9886 106L34 113H28L30.9886 106Z" fill="currentColor"/>
<path d="M64 103V119H61.4196L52.111 108.166V119H49V103H51.5804L60.889 113.834V103H64Z" fill="currentColor"/>
<path d="M90 103V119H87.4197L78.1109 108.166V119H75V103H77.5804L86.8888 113.834V103H90Z" fill="currentColor"/>
<path fill-rule="evenodd" clip-rule="evenodd" d="M102.814 115.297H111.114L112.774 119H116L108.506 103H105.47L98 119H101.178L102.814 115.297ZM106.989 106L110 113H104L106.989 106Z" fill="currentColor"/>
<path fill-rule="evenodd" clip-rule="evenodd" d="M135.961 110.68C136.894 110.97 137.633 111.457 138.18 112.143C138.727 112.814 139 113.652 139 114.657C139 116.044 138.438 117.118 137.312 117.88C136.187 118.626 134.547 119 132.393 119H124V103H131.91C133.904 103 135.439 103.374 136.516 104.12C137.593 104.851 138.132 105.865 138.132 107.16C138.132 107.953 137.939 108.654 137.553 109.263C137.167 109.872 136.637 110.345 135.961 110.68ZM128 106V110H132.529C133.645 110 134.498 109.834 135.089 109.502C135.696 109.157 136 108.659 136 108.01C136 107.347 135.696 106.849 135.089 106.518C134.498 106.172 133.645 106 132.529 106H128ZM137 114C137 115.333 135.745 116 133.235 116H128V112H133.235C135.745 112 137 112.666 137 114Z" fill="currentColor"/>
<path d="M148 103H151V119H148V103Z" fill="currentColor"/>
<path d="M167.418 120C166.163 120 164.945 119.818 163.767 119.457C162.605 119.095 161.682 118.614 161 118.016L162.047 115.632C162.713 116.167 163.528 116.608 164.488 116.954C165.465 117.284 166.442 117.449 167.418 117.449C168.628 117.449 169.527 117.253 170.116 116.859C170.721 116.466 171.023 115.946 171.023 115.301C171.023 114.829 170.853 114.443 170.512 114.144C170.186 113.829 169.768 113.585 169.256 113.412C168.744 113.239 168.047 113.043 167.163 112.822C165.922 112.523 164.915 112.224 164.14 111.925C163.38 111.626 162.721 111.161 162.163 110.532C161.621 109.886 161.349 109.021 161.349 107.934C161.349 107.022 161.589 106.195 162.07 105.455C162.566 104.7 163.302 104.101 164.279 103.661C165.272 103.22 166.481 103 167.907 103C168.899 103 169.876 103.126 170.837 103.377C171.798 103.629 172.628 103.992 173.325 104.464L172.372 106.849C171.659 106.423 170.914 106.101 170.139 105.88C169.364 105.66 168.613 105.55 167.884 105.55C166.69 105.55 165.798 105.754 165.209 106.164C164.636 106.573 164.349 107.116 164.349 107.793C164.349 108.265 164.511 108.651 164.838 108.95C165.178 109.249 165.605 109.485 166.116 109.658C166.628 109.831 167.326 110.028 168.209 110.249C169.418 110.532 170.411 110.831 171.186 111.146C171.961 111.445 172.62 111.909 173.163 112.538C173.721 113.169 174 114.018 174 115.089C174 116.002 173.752 116.828 173.255 117.568C172.775 118.307 172.038 118.898 171.046 119.338C170.055 119.779 168.845 120 167.418 120Z" fill="currentColor"/>
<path fill-rule="evenodd" clip-rule="evenodd" d="M106.113 27.7908C105.96 26.4487 105.553 21.0378 108.353 17.5935C111.079 14.2423 115.396 12.4774 116.656 12.0158C116.828 11.9538 117.011 12.0817 116.999 12.2641C116.929 13.7497 116.467 19.3157 113.406 22.9074C110.582 26.216 106.652 28.2408 106.226 27.977C106.159 27.9343 106.12 27.8684 106.113 27.7908ZM82.599 38.8426C83.1969 40.4917 83.9847 44.6757 78.3824 47.8829C77.4431 48.4207 76.6392 46.9615 77.5829 46.4237C82.6608 43.5288 81.3291 39.4793 80.9298 39.3646C80.5953 39.2697 79.3224 40.9148 75.6491 42.2278C71.949 43.5486 65.9037 42.2317 65.7445 41.8046C65.5892 41.3854 67.7363 38.9375 69.6737 37.5732C71.3394 36.3986 73.2807 35.5088 74.6008 34.971C74.8609 34.8642 74.7833 34.4648 74.5037 34.4687C72.1431 34.5122 67.5965 34.3343 62.9257 32.705C57.0241 30.6446 52.9357 25.7369 52 24.5346L52.1048 24.1352C53.2696 23.6528 57.6376 21.9997 63.0539 21.9562C66.754 21.9246 70.8035 23.3562 73.5447 24.5545C73.8204 24.6731 74.0378 24.2855 73.7971 24.1075C71.2656 22.2212 67.6936 19.1722 65.3951 15.5418C61.955 10.1041 61.2018 2.22251 61.5086 1.88637C61.8774 1.48299 67.1345 1.97337 73.5913 7.3161C78.1653 11.1007 80.7506 16.3841 82.0591 19.8761C82.1641 20.1569 82.5797 20.058 82.5527 19.7574C81.815 12.2515 84.0705 5.145 86.2101 0.0870024L86.6179 0C87.7742 1.11916 92.3176 6.05853 92.8413 14.9447C93.2066 21.1415 90.7874 25.0131 88.6795 27.382C88.481 27.6034 88.7567 27.9357 89.0054 27.7735C92.3717 25.5945 96.6578 24.6533 99.7174 24.3053C99.9313 24.2815 100.075 24.5188 99.9584 24.7047C90.558 39.5465 83.0184 37.9686 82.626 38.6092C82.5758 38.6844 82.5681 38.7635 82.599 38.8426ZM100.022 16.7671C99.9775 15.5656 99.9217 11.929 100.719 8.84729C101.533 5.70976 105.157 1.91754 105.602 2.00137C105.686 2.01734 105.75 2.06524 105.786 2.14109C110.316 11.0468 100.755 17.3299 100.154 16.9866C100.074 16.9387 100.026 16.8589 100.022 16.7671Z" fill="currentColor"/>
<path fill-rule="evenodd" clip-rule="evenodd" d="M58.8902 41.4016C57.7524 42.2845 53.0548 45.6453 48.471 44.8904C44.0172 44.1568 40.1689 41.0519 39.096 40.1136C38.9498 39.9857 38.9741 39.7426 39.1449 39.6487C40.5305 38.8981 45.8174 36.2751 50.6694 37.1921C55.1395 38.0408 59.0162 40.6382 58.9999 41.1841C58.9959 41.2737 58.9594 41.3462 58.8902 41.4016ZM79.0305 56.3597C80.1327 54.9912 83.2975 52.158 88.8266 55.5491C89.7543 56.1189 88.9155 57.5797 87.9839 57.0059C82.9831 53.9278 80.2069 57.1784 80.3081 57.5917C80.3969 57.9409 82.4277 58.2419 85.3784 60.8664C88.3493 63.507 90.2557 69.5869 89.9722 69.9481C89.6925 70.3012 86.5394 69.619 84.4082 68.5796C82.5752 67.6847 80.8473 66.4005 79.7334 65.4895C79.5117 65.309 79.2128 65.5818 79.3564 65.8306C80.5754 67.9215 82.6957 72.083 83.6466 77.0914C84.847 83.4199 82.7189 89.5682 82.1635 91.0165L81.7719 91.1251C80.7777 90.3267 77.1899 87.2569 74.4447 82.4291C72.5694 79.1343 71.7579 74.7798 71.4084 71.7218C71.3735 71.4168 70.9348 71.4168 70.9037 71.7259C70.5659 74.9484 69.7582 79.6955 67.8208 83.5884C64.9203 89.4277 58.5953 94.099 58.1566 93.9984C57.6285 93.8739 55.4192 88.9183 56.7315 80.426C57.6596 74.4107 60.8628 69.4184 63.177 66.4727C63.3633 66.2359 63.0682 65.9149 62.8314 66.0914C56.817 70.5621 49.6455 72.1473 44.2757 72.7974L44 72.4763C44.3727 70.8711 46.2986 64.3016 53.5943 59.3214C58.6807 55.85 63.1809 56.0507 66.2482 56.737C66.5355 56.8012 66.6831 56.3878 66.419 56.2473C62.8818 54.3411 59.9387 50.9822 58.1138 48.4178C57.9857 48.2372 58.1177 47.9884 58.3313 48.0004C75.6484 48.8833 78.079 56.432 78.8204 56.46C78.9061 56.456 78.9795 56.4239 79.0305 56.3597ZM50.8818 53.3761C49.9094 54.0086 46.9275 55.8588 43.9991 56.7008C41.0172 57.5587 36.1555 56.3411 36.0144 55.922C35.9877 55.843 35.9991 55.7639 36.041 55.6927C41.2536 47.4144 50.9962 52.4667 51 53.1507C51 53.2495 50.958 53.3286 50.8818 53.3761Z" fill="currentColor"/>
<path fill-rule="evenodd" clip-rule="evenodd" d="M93.5249 78.0208C94.7287 78.5543 99.463 80.8838 101.009 84.972C102.509 88.9442 101.919 93.489 101.701 94.7901C101.671 94.9665 101.475 95.0589 101.324 94.9589C100.11 94.164 95.6571 91.0173 94.1152 86.6374C92.6937 82.5996 92.886 78.2588 93.3072 78.0285C93.382 77.9939 93.4538 77.9901 93.5249 78.0208ZM95.6331 51.6253C93.9161 51.332 89.9262 49.9514 90.001 43.4748C90.0166 42.3876 91.6705 42.4071 91.6588 43.4983C91.58 49.3609 95.7313 50.2017 96.0253 49.9084C96.2756 49.662 95.5037 47.7417 96.2327 43.8894C96.9657 40.0097 101.147 35.383 101.594 35.4573C102.033 35.5276 103.048 38.6134 103.245 40.9757C103.413 43.0133 103.197 45.1409 102.99 46.5605C102.947 46.8422 103.331 46.9712 103.468 46.7209C104.62 44.6403 107.07 40.7606 110.825 37.491C115.571 33.361 121.846 32.2229 123.351 32L123.645 32.2894C123.473 33.5448 122.685 38.1715 119.988 42.9156C118.147 46.1577 114.873 48.9854 112.463 50.7805C112.22 50.9605 112.444 51.3437 112.722 51.2224C115.618 49.9475 120.039 48.34 124.311 48.1289C130.716 47.816 137.861 51.0543 137.994 51.4884C138.155 52.0086 135.078 56.3498 127.235 59.3455C121.678 61.4653 115.838 61.1055 112.181 60.5227C111.887 60.4758 111.761 60.8865 112.036 61.0117C118.851 64.0779 123.81 69.5611 127.071 73.9297L126.937 74.3286C125.393 74.7823 118.859 76.3075 110.97 72.3692C105.467 69.6236 103.366 65.5992 102.394 62.5878C102.304 62.3062 101.88 62.3805 101.892 62.6777C102.065 66.6904 100.708 70.8986 99.4624 73.7341C99.3759 73.9335 99.0975 73.9413 99 73.7497C91.0085 58.2114 96.1664 52.4153 95.8132 51.7543C95.7781 51.684 95.7158 51.637 95.6331 51.6253ZM105.394 78.0307C106.409 78.5792 109.448 80.302 111.62 82.4726C113.83 84.6858 115.247 89.5795 114.964 89.9099C114.91 89.9718 114.842 90.0036 114.761 89.9997C105.23 89.4665 104.577 78.373 105.149 78.0307C105.23 77.9917 105.318 77.9879 105.394 78.0307Z" fill="currentColor"/>
</svg>
