<svg class="@@class" width="50" height="44" viewBox="0 0 50 44" fill="none" xmlns="http://www.w3.org/2000/svg">
    <path d="M47.311 27.6956C46.4686 27.6956 45.7849 28.3823 45.7849 29.2284V39.9578H3.05233V21.5645H19.8401C20.6826 21.5645 21.3663 20.8778 21.3663 20.0318C21.3663 19.1857 20.6826 18.499 19.8401 18.499H3.05233V12.3679H19.8401C20.6826 12.3679 21.3663 11.6812 21.3663 10.8351C21.3663 9.98905 20.6826 9.30237 19.8401 9.30237H3.05233C1.36744 9.30237 0 10.6757 0 12.3679V39.9578C0 41.6499 1.36744 43.0233 3.05233 43.0233H45.7849C47.4698 43.0233 48.8372 41.6499 48.8372 39.9578V29.2284C48.8372 28.3823 48.1535 27.6956 47.311 27.6956Z"
          fill="currentColor"/>
    <path d="M14.7285 27.907H8.52695C7.67114 27.907 6.97656 28.6884 6.97656 29.6512C6.97656 30.614 7.67114 31.3954 8.52695 31.3954H14.7285C15.5843 31.3954 16.2789 30.614 16.2789 29.6512C16.2789 28.6884 15.5843 27.907 14.7285 27.907Z"
          fill="currentColor"/>
    <path fill-rule="evenodd" clip-rule="evenodd"
          d="M38.3926 0.1248L49.0758 4.83422C49.6374 5.08225 50.0006 5.65052 50.0006 6.27844V12.5577C50.0006 21.2073 46.8964 26.2558 38.5514 31.1881C38.3163 31.3263 38.0538 31.3953 37.7913 31.3953C37.5288 31.3953 37.2663 31.3263 37.0313 31.1881C28.6862 26.2432 25.582 21.1947 25.582 12.5577V6.27844C25.582 5.65052 25.9453 5.08225 26.5038 4.83422L37.187 0.1248C37.5746 -0.0415999 38.005 -0.0415999 38.3926 0.1248ZM37.7913 28.0046C44.6163 23.7975 46.9483 19.807 46.9483 12.5577V7.31451L37.7913 3.27697L28.6344 7.31451V12.5577C28.6344 19.7976 30.9663 23.7881 37.7913 28.0046Z"
          fill="currentColor"/>
    <path d="M42.4773 9.62645C41.8524 9.11805 40.9396 9.21674 40.4338 9.85971L35.8643 15.7392L34.0562 12.9579C33.6056 12.2701 32.7016 12.0877 32.0417 12.5423C31.3761 12.9998 31.1929 13.9299 31.6377 14.6147L34.5445 19.1006C34.8033 19.4983 35.2277 19.7436 35.6928 19.7675C35.7131 19.7675 35.7364 19.7675 35.7538 19.7675C36.1927 19.7675 36.6113 19.5641 36.8904 19.2053L42.7041 11.7288C43.2041 11.0829 43.1052 10.1438 42.4773 9.62645Z"
          fill="currentColor"/>
</svg>
