<svg class="@@class" width="50" height="35" viewBox="0 0 50 35" fill="none" xmlns="http://www.w3.org/2000/svg">
    <path fill-rule="evenodd" clip-rule="evenodd"
          d="M31.6328 28.5714C31.6328 25.1954 34.3793 22.449 37.7553 22.449C41.1313 22.449 43.8777 25.1954 43.8777 28.5714C43.8777 31.9474 41.1318 34.6939 37.7553 34.6939C34.3793 34.6939 31.6328 31.9474 31.6328 28.5714ZM34.694 28.5714C34.694 30.2597 36.067 31.6326 37.7553 31.6326C39.4435 31.6326 40.8165 30.2598 40.8165 28.5714C40.8165 26.8832 39.4435 25.5102 37.7553 25.5102C36.067 25.5102 34.694 26.8832 34.694 28.5714Z"
          fill="currentColor"/>
    <path fill-rule="evenodd" clip-rule="evenodd"
          d="M11.2246 28.5714C11.2246 25.1954 13.9711 22.449 17.3471 22.449C20.723 22.449 23.4695 25.1954 23.4695 28.5714C23.4695 31.9474 20.723 34.6939 17.3471 34.6939C13.9711 34.6939 11.2246 31.9474 11.2246 28.5714ZM14.2858 28.5714C14.2858 30.2597 15.6588 31.6326 17.3471 31.6326C19.0353 31.6326 20.4083 30.2598 20.4083 28.5714C20.4083 26.8832 19.0348 25.5102 17.3471 25.5102C15.6588 25.5102 14.2858 26.8832 14.2858 28.5714Z"
          fill="currentColor"/>
    <path d="M40.9047 5.85977C40.6207 5.39516 40.0431 5.10205 39.4115 5.10205H31.6113V7.85397H38.3811L42.9309 15.3061L45.9175 14.0696L40.9047 5.85977Z"
          fill="currentColor"/>
    <rect x="21.4277" y="25.5103" width="11.2245" height="4.08163" fill="currentColor"/>
    <path d="M10.5642 25.5103H4.74045C3.81252 25.5103 3.06055 26.4239 3.06055 27.5511C3.06055 28.6784 3.81262 29.5919 4.74045 29.5919H10.5643C11.4923 29.5919 12.2442 28.6782 12.2442 27.5511C12.2442 26.4238 11.4921 25.5103 10.5642 25.5103Z"
          fill="currentColor"/>
    <path d="M49.6733 17.5633L46.6175 13.4888C46.3239 13.0963 45.8708 12.8668 45.3907 12.8668H34.1014V1.60832C34.1014 0.719925 33.4059 0 32.5479 0H6.65508C5.79696 0 5.10156 0.720024 5.10156 1.60832C5.10156 2.49661 5.79706 3.21663 6.65508 3.21663H30.9943V14.4751C30.9943 15.3635 31.6898 16.0835 32.5478 16.0835H44.6299L46.8924 19.1007V27.3956H42.5942C41.736 27.3956 41.0406 28.1156 41.0406 29.0039C41.0406 29.8923 41.7361 30.6122 42.5942 30.6122H48.4459C49.304 30.6122 49.9994 29.8922 49.9995 29.0039V18.5498C49.9995 18.1927 49.8846 17.8453 49.6733 17.5633Z"
          fill="currentColor"/>
    <path d="M10.6991 18.3673H3.58707C2.73307 18.3673 2.04102 19.281 2.04102 20.4081C2.04102 21.5354 2.73316 22.4489 3.58707 22.4489H10.699C11.553 22.4489 12.2451 21.5353 12.2451 20.4081C12.2452 19.281 11.553 18.3673 10.6991 18.3673Z"
          fill="currentColor"/>
    <path d="M15.7001 12.2449H1.64682C0.737262 12.2449 0 13.1585 0 14.2858C0 15.413 0.737262 16.3265 1.64682 16.3265H15.7001C16.6098 16.3265 17.3469 15.4129 17.3469 14.2858C17.3469 13.1586 16.6098 12.2449 15.7001 12.2449Z"
          fill="currentColor"/>
    <path d="M17.7411 6.12244H3.68784C2.77818 6.12244 2.04102 7.03609 2.04102 8.16325C2.04102 9.29055 2.77828 10.2041 3.68784 10.2041H17.7411C18.6508 10.2041 19.388 9.29042 19.388 8.16325C19.3881 7.03609 18.6508 6.12244 17.7411 6.12244Z"
          fill="currentColor"/>
</svg>
