<svg class="@@class" width="50" height="50" viewBox="0 0 50 50" fill="none" xmlns="http://www.w3.org/2000/svg">
    <path fill-rule="evenodd" clip-rule="evenodd"
          d="M0 25C0 11.2156 11.2156 0 25 0C38.7844 0 50 11.2156 50 25C50 38.7844 38.7844 50 25 50C11.2156 50 0 38.7844 0 25ZM3.125 25C3.125 37.0625 12.9375 46.875 25 46.875C37.0625 46.875 46.875 37.0625 46.875 25C46.875 12.9375 37.0625 3.125 25 3.125C12.9375 3.125 3.125 12.9375 3.125 25Z"
          fill="currentColor"/>
    <path d="M25.5109 23.9229C22.8562 23.9229 20.613 22.4689 20.613 20.7483C20.613 19.0277 22.8562 17.5737 25.5109 17.5737C27.013 17.5737 28.404 18.0308 29.3248 18.8245C29.9975 19.4054 31.026 19.3515 31.6301 18.6912C32.2309 18.0372 32.1689 17.034 31.493 16.4499C30.3501 15.4626 28.8154 14.7959 27.1436 14.5324V12.8118C27.1436 11.9356 26.4121 11.2245 25.5109 11.2245C24.6097 11.2245 23.8783 11.9356 23.8783 12.8118V14.5261C20.1558 15.1166 17.3477 17.6816 17.3477 20.7483C17.3477 24.2499 21.0113 27.0975 25.5109 27.0975C28.1656 27.0975 30.4089 28.5515 30.4089 30.2721C30.4089 31.9927 28.1656 33.4467 25.5109 33.4467C24.0089 33.4467 22.6179 32.9896 21.697 32.1959C21.0244 31.6118 19.9926 31.6689 19.3917 32.3292C18.7909 32.9832 18.853 33.9864 19.5289 34.5705C20.6717 35.561 22.2064 36.2245 23.8783 36.4912V38.2086C23.8783 39.0848 24.6097 39.7959 25.5109 39.7959C26.4121 39.7959 27.1436 39.0848 27.1436 38.2086V36.4943C30.866 35.9039 33.6742 33.3388 33.6742 30.2721C33.6742 26.7705 30.0105 23.9229 25.5109 23.9229Z"
          fill="currentColor"/>
</svg>
