<svg width="79" height="21" viewBox="0 0 79 21" fill="none" xmlns="http://www.w3.org/2000/svg">
<g clip-path="url(#clip0_276_198139)">
<path d="M29.6368 4.29468H25.3349C25.1924 4.29459 25.0547 4.34596 24.9464 4.43953C24.8381 4.5331 24.7664 4.66272 24.7442 4.80504L23.0043 15.9649C22.9963 16.0167 22.9995 16.0697 23.0136 16.1201C23.0278 16.1705 23.0526 16.2172 23.0863 16.257C23.12 16.2968 23.1619 16.3287 23.209 16.3506C23.2561 16.3725 23.3073 16.3838 23.3591 16.3837H25.4129C25.5554 16.3837 25.6932 16.3323 25.8015 16.2386C25.9098 16.1449 25.9815 16.0151 26.0035 15.8727L26.4728 12.8627C26.4948 12.7203 26.5664 12.5907 26.6745 12.497C26.7827 12.4033 26.9204 12.3518 27.0628 12.3517H28.4247C31.2585 12.3517 32.8939 10.9644 33.3211 8.21531C33.5135 7.01259 33.3292 6.06759 32.7725 5.40577C32.1611 4.67904 31.0767 4.29468 29.6368 4.29468V4.29468ZM30.1331 8.37059C29.8979 9.93222 28.7184 9.93222 27.578 9.93222H26.9288L27.3843 7.01577C27.3976 6.93044 27.4406 6.85273 27.5055 6.79662C27.5704 6.74051 27.653 6.70968 27.7384 6.70968H28.0359C28.8128 6.70968 29.5456 6.70968 29.9243 7.15768C30.1501 7.42495 30.2193 7.82204 30.1331 8.37059V8.37059ZM42.4961 8.32031H40.436C40.3507 8.32031 40.2681 8.35115 40.2031 8.40726C40.1382 8.46337 40.0952 8.54108 40.0819 8.6264L39.9907 9.20931L39.8466 8.99804C39.4007 8.34322 38.4062 8.12431 37.4135 8.12431C35.1371 8.12431 33.1927 9.86859 32.8141 12.3154C32.6172 13.536 32.8971 14.703 33.5815 15.5169C34.2092 16.2653 35.1075 16.5771 36.1762 16.5771C38.0105 16.5771 39.0276 15.3839 39.0276 15.3839L38.9358 15.963C38.9276 16.0148 38.9306 16.0678 38.9446 16.1183C38.9586 16.1687 38.9833 16.2156 39.0169 16.2555C39.0505 16.2954 39.0922 16.3275 39.1393 16.3495C39.1863 16.3715 39.2375 16.383 39.2893 16.383H41.145C41.2875 16.3831 41.4253 16.3316 41.5336 16.2379C41.6419 16.1442 41.7136 16.0145 41.7356 15.872L42.849 8.73904C42.8572 8.68738 42.8542 8.63454 42.8402 8.58416C42.8263 8.53378 42.8017 8.48707 42.7681 8.44726C42.7346 8.40745 42.6929 8.37548 42.6459 8.35356C42.5989 8.33164 42.5478 8.3203 42.4961 8.32031V8.32031ZM39.6246 12.3765C39.4258 13.5671 38.4917 14.3664 37.3003 14.3664C36.7021 14.3664 36.224 14.1723 35.9171 13.8045C35.6126 13.4392 35.4969 12.9193 35.5938 12.3402C35.7793 11.1598 36.7292 10.3344 37.9023 10.3344C38.4873 10.3344 38.9628 10.531 39.2761 10.902C39.59 11.2769 39.7145 11.7999 39.6246 12.3765V12.3765ZM53.4677 8.32031H51.3976C51.2999 8.32047 51.2038 8.34472 51.1175 8.39096C51.0313 8.43721 50.9575 8.50404 50.9025 8.58568L48.0473 12.8404L46.8371 8.75177C46.7999 8.62707 46.7241 8.51778 46.6208 8.44007C46.5174 8.36237 46.3921 8.32038 46.2634 8.32031H44.2291C44.172 8.32016 44.1157 8.33381 44.0649 8.36012C44.014 8.38643 43.9701 8.42464 43.9368 8.47158C43.9035 8.51852 43.8818 8.57282 43.8735 8.62997C43.8651 8.68711 43.8704 8.74546 43.8888 8.80013L46.169 15.5698L44.0253 18.6313C43.9872 18.6856 43.9646 18.7494 43.96 18.8158C43.9554 18.8823 43.9689 18.9487 43.9991 19.0078C44.0293 19.067 44.075 19.1166 44.1312 19.1512C44.1874 19.1858 44.252 19.2041 44.3178 19.204H46.3854C46.482 19.2042 46.5771 19.1806 46.6627 19.1354C46.7482 19.0902 46.8217 19.0246 46.8767 18.9444L53.7621 8.88986C53.7994 8.83546 53.8213 8.77177 53.8254 8.70568C53.8295 8.6396 53.8156 8.57364 53.7853 8.51496C53.7549 8.45628 53.7093 8.40712 53.6533 8.37281C53.5973 8.3385 53.5332 8.32034 53.4677 8.32031V8.32031Z" fill="#253B80"/>
<path d="M60.3215 4.29483H56.0189C55.8766 4.29489 55.739 4.34632 55.6308 4.43988C55.5227 4.53344 55.451 4.66298 55.4289 4.80519L53.689 15.9651C53.6809 16.0168 53.684 16.0696 53.698 16.12C53.7121 16.1704 53.7367 16.2171 53.7703 16.2569C53.8039 16.2967 53.8457 16.3287 53.8926 16.3506C53.9396 16.3725 53.9908 16.3838 54.0425 16.3838H56.2504C56.35 16.3837 56.4463 16.3476 56.5219 16.282C56.5976 16.2165 56.6476 16.1257 56.663 16.0262L57.1568 12.8628C57.1789 12.7205 57.2504 12.5908 57.3586 12.4971C57.4668 12.4034 57.6045 12.3519 57.7469 12.3518H59.1081C61.9425 12.3518 63.5774 10.9646 64.0051 8.21546C64.1982 7.01273 64.0127 6.06773 63.456 5.40592C62.8452 4.67919 61.7613 4.29483 60.3215 4.29483V4.29483ZM60.8178 8.37073C60.5832 9.93237 59.4037 9.93237 58.2627 9.93237H57.6141L58.0702 7.01592C58.0833 6.93059 58.1261 6.85282 58.1909 6.79667C58.2558 6.74052 58.3384 6.70972 58.4237 6.70983H58.7212C59.4975 6.70983 60.2309 6.70983 60.6096 7.15783C60.8354 7.4251 60.904 7.82219 60.8178 8.37073V8.37073ZM73.1802 8.32046H71.1213C71.036 8.32022 70.9533 8.35098 70.8885 8.40715C70.8236 8.46332 70.7808 8.54117 70.7678 8.62655L70.6766 9.20946L70.5319 8.99819C70.086 8.34337 69.0921 8.12446 68.0995 8.12446C65.823 8.12446 63.8793 9.86873 63.5006 12.3156C63.3044 13.5361 63.583 14.7032 64.2674 15.5171C64.8964 16.2655 65.7934 16.5773 66.8622 16.5773C68.6964 16.5773 69.7136 15.3841 69.7136 15.3841L69.6217 15.9632C69.6135 16.0151 69.6166 16.0681 69.6306 16.1187C69.6447 16.1693 69.6695 16.2162 69.7032 16.2561C69.7369 16.296 69.7789 16.3281 69.826 16.35C69.8732 16.372 69.9246 16.3833 69.9765 16.3832H71.8315C71.9739 16.3831 72.1116 16.3316 72.2198 16.2379C72.328 16.1442 72.3995 16.0145 72.4216 15.8722L73.5356 8.73919C73.5435 8.68737 73.5402 8.63443 73.526 8.58401C73.5117 8.53359 73.4869 8.48689 73.4531 8.44711C73.4193 8.40733 73.3774 8.37541 73.3303 8.35355C73.2832 8.33169 73.232 8.3204 73.1802 8.32046V8.32046ZM70.3086 12.3766C70.1111 13.5673 69.1758 14.3666 67.9844 14.3666C67.3874 14.3666 66.9081 14.1725 66.6011 13.8046C66.2967 13.4394 66.1822 12.9195 66.2778 12.3404C66.4646 11.1599 67.4132 10.3346 68.5863 10.3346C69.1713 10.3346 69.6469 10.5312 69.9602 10.9022C70.2753 11.277 70.3998 11.8001 70.3086 12.3766V12.3766ZM75.6089 4.60092L73.8432 15.9651C73.8351 16.0168 73.8382 16.0696 73.8522 16.12C73.8663 16.1704 73.8909 16.2171 73.9245 16.2569C73.9581 16.2967 73.9999 16.3287 74.0468 16.3506C74.0938 16.3725 74.145 16.3838 74.1967 16.3838H75.9718C76.2668 16.3838 76.5172 16.1675 76.5625 15.8728L78.3036 4.71355C78.3117 4.66183 78.3086 4.60894 78.2946 4.55853C78.2806 4.50813 78.2559 4.46139 78.2223 4.42155C78.1887 4.3817 78.147 4.34968 78.1 4.3277C78.053 4.30571 78.0019 4.29428 77.9501 4.29419H75.9624C75.877 4.2945 75.7946 4.32553 75.7298 4.38173C75.665 4.43794 75.6222 4.51564 75.6089 4.60092Z" fill="#179BD7"/>
<path d="M5.1385 18.5525L5.46748 16.4385L4.73466 16.4213H1.23535L3.66719 0.82216C3.67443 0.774497 3.69836 0.731053 3.73462 0.699748C3.77087 0.668442 3.81704 0.65136 3.86471 0.651614H9.76503C11.7238 0.651614 13.0756 1.06398 13.7814 1.87789C14.1123 2.2597 14.323 2.6587 14.4249 3.0978C14.5318 3.55852 14.5337 4.10898 14.4293 4.78034L14.4218 4.82934V5.25952L14.7526 5.44916C15.0052 5.57862 15.2323 5.75375 15.4225 5.96589C15.7056 6.29234 15.8887 6.70725 15.966 7.19916C16.0459 7.70507 16.0195 8.30707 15.8887 8.98861C15.7377 9.77261 15.4936 10.4554 15.164 11.0142C14.8732 11.5147 14.4822 11.9482 14.016 12.2869C13.5782 12.6013 13.058 12.8399 12.4699 12.9926C11.9 13.1428 11.2502 13.2185 10.5375 13.2185H10.0783C9.74993 13.2185 9.43101 13.3382 9.18066 13.5526C8.93066 13.7694 8.76481 14.0688 8.71266 14.3977L8.67806 14.588L8.09684 18.3139L8.07042 18.4507C8.0635 18.494 8.05155 18.5156 8.03393 18.5302C8.01687 18.5444 7.99558 18.5522 7.97355 18.5525H5.1385Z" fill="#253B80"/>
<path d="M15.0662 4.87891C15.0486 4.99282 15.0285 5.10927 15.0058 5.22891C14.2277 9.27045 11.5656 10.6666 8.16572 10.6666H6.43462C6.01883 10.6666 5.66846 10.9721 5.60367 11.387L4.71736 17.0735L4.46638 18.6855C4.45638 18.7494 4.4602 18.8148 4.47757 18.8771C4.49494 18.9394 4.52544 18.9971 4.56699 19.0464C4.60854 19.0956 4.66014 19.1351 4.71824 19.1622C4.77635 19.1894 4.83957 19.2034 4.90355 19.2035H7.97386C8.33744 19.2035 8.6463 18.9362 8.70354 18.5735L8.73373 18.4156L9.31181 14.7044L9.34893 14.5007C9.40554 14.1367 9.71502 13.8695 10.0786 13.8695H10.5378C13.5125 13.8695 15.8412 12.6476 16.5218 9.112C16.8061 7.635 16.6589 6.40172 15.9066 5.53436C15.6681 5.26605 15.3834 5.04393 15.0662 4.87891V4.87891Z" fill="#179BD7"/>
<path d="M14.2521 4.55059C14.0036 4.47788 13.7509 4.42113 13.4954 4.38069C12.9904 4.30218 12.4802 4.26452 11.9693 4.26805H7.34468C7.16868 4.26791 6.99844 4.33148 6.86473 4.44725C6.73102 4.56303 6.64266 4.72338 6.61563 4.89932L5.63182 11.2031L5.60352 11.3871C5.63416 11.1864 5.7348 11.0034 5.88721 10.8713C6.03962 10.7392 6.23375 10.6666 6.43447 10.6667H8.16556C11.5655 10.6667 14.2275 9.26987 15.0057 5.22896C15.0289 5.10932 15.0484 4.99287 15.066 4.87896C14.8607 4.77003 14.6467 4.67871 14.4263 4.60596C14.3685 4.58656 14.3105 4.5681 14.2521 4.55059V4.55059Z" fill="#222D65"/>
<path d="M6.61582 4.89936C6.64262 4.72338 6.73093 4.56295 6.86471 4.44723C6.99848 4.33151 7.16885 4.26817 7.34487 4.26873H11.9695C12.5174 4.26873 13.0288 4.305 13.4955 4.38136C13.8114 4.43158 14.1229 4.50669 14.4271 4.606C14.6567 4.683 14.87 4.774 15.0669 4.879C15.2984 3.38545 15.065 2.36855 14.2667 1.44773C13.3867 0.434 11.7984 0 9.76601 0H3.86569C3.45053 0 3.09638 0.305455 3.03222 0.721L0.574593 16.4805C0.563146 16.5537 0.567501 16.6285 0.587359 16.6998C0.607217 16.7711 0.642107 16.8372 0.689629 16.8936C0.73715 16.95 0.796175 16.9952 0.862644 17.0263C0.929113 17.0574 1.00145 17.0735 1.07467 17.0736H4.7174L5.63201 11.2032L6.61582 4.89936V4.89936Z" fill="#253B80"/>
</g>
<defs>
<clipPath id="clip0_276_198139">
<rect width="78" height="21" fill="white" transform="translate(0.568359)"/>
</clipPath>
</defs>
</svg>
