<svg width="38" height="51" viewBox="0 0 38 51" fill="none" xmlns="http://www.w3.org/2000/svg">
<path d="M17.0469 49.2734C17.9258 50.6406 19.9766 50.6406 20.8555 49.2734C35.1133 28.7656 37.75 26.6172 37.75 19C37.75 8.64844 29.3516 0.25 19 0.25C8.55078 0.25 0.25 8.64844 0.25 19C0.25 26.6172 2.78906 28.7656 17.0469 49.2734ZM19 26.8125C14.6055 26.8125 11.1875 23.3945 11.1875 19C11.1875 14.7031 14.6055 11.1875 19 11.1875C23.2969 11.1875 26.8125 14.7031 26.8125 19C26.8125 23.3945 23.2969 26.8125 19 26.8125Z" fill="#258F67"/>
</svg>
