<svg class="@@class" width="47" height="50" viewBox="0 0 47 50" fill="none" xmlns="http://www.w3.org/2000/svg">
<path fill-rule="evenodd" clip-rule="evenodd" d="M41.2292 20.6684H41.3542C44.2277 20.6684 46.2265 23.8244 46.2264 26.485V34.2202C46.2264 36.6336 44.5398 38.3044 41.8538 38.49L40.6669 40.2227C38.3206 43.3138 34.6389 45.126 30.7349 45.1113C30.5595 46.2319 30.0354 47.2703 29.2356 48.0817C28.0503 49.2834 26.4339 49.9728 24.7381 50C21.3125 50.0002 18.5257 47.2672 18.4915 43.8738C18.5146 40.9805 20.5779 38.4977 23.4397 37.9196C26.7861 37.2434 30.0524 39.3828 30.7349 42.698C33.8524 42.7127 36.7936 41.2673 38.6681 38.7995L38.793 38.6139H37.3563C37.3328 38.6128 37.3092 38.611 37.2858 38.6086C36.634 38.5395 36.1622 37.9601 36.2319 37.3144V22.1535C36.2319 21.4108 36.6692 20.6683 37.3563 20.6683H38.7306V17.6361C38.7306 9.26299 31.8786 2.47514 23.4264 2.47514C14.9742 2.47514 8.12218 9.26299 8.12218 17.6361V20.6683H9.49645C10.1836 20.6683 10.6208 21.4109 10.6208 22.1535V37.3144C10.6233 37.3376 10.6251 37.361 10.6262 37.3843C10.6571 38.0329 10.1512 38.5836 9.49645 38.614H4.87398L4.85772 38.6138C4.84166 38.6136 4.82563 38.6133 4.80954 38.6128C2.08503 38.5442 -0.0676036 36.3007 0.00162401 33.6017V25.8665C0.00162401 23.0817 2.12544 20.6684 4.87398 20.6684H5.62353V17.6362C5.62353 7.89601 13.594 0 23.4264 0C33.2587 0 41.2292 7.89601 41.2292 17.6362V20.6684ZM4.87398 36.1387H8.12218V23.1436H4.87398C3.49971 23.1436 2.50027 24.4431 2.50027 25.8664V33.6015C2.4992 33.6236 2.49836 33.6455 2.49776 33.6674C2.465 34.9999 3.52888 36.1063 4.87398 36.1387ZM27.4242 46.3492C26.732 47.0928 25.7593 47.5186 24.7382 47.525C22.7059 47.493 21.0566 45.8864 20.9903 43.8739C20.9894 41.8575 22.6388 40.2222 24.6743 40.2214C26.7097 40.2206 28.3604 41.8545 28.3613 43.8709V43.8739C28.4133 44.7927 28.0732 45.6909 27.4242 46.3492ZM41.3542 36.1387C42.1037 36.1387 43.7279 35.8912 43.7279 34.2204V26.4852C43.7279 25.062 42.7284 23.1437 41.3542 23.1437H38.7306V36.1387H41.3542Z" fill="currentColor"/>
</svg>
